<svg width="3162" height="1809" xmlns="http://www.w3.org/2000/svg" xmlns:xlink="http://www.w3.org/1999/xlink" xml:space="preserve" overflow="hidden" style="background-color:white"><g transform="translate(-514 -320)"><text fill="#3F3F3F" font-family="Metropolis,Metropolis_MSFontService,sans-serif" font-weight="400" font-size="46" transform="matrix(1 0 0 1 1422.23 1162)">zPod </text><text fill="#156082" font-family="Metropolis,Metropolis_MSFontService,sans-serif" font-weight="700" font-size="46" transform="matrix(1 0 0 1 1546.55 1162)">test</text><text fill="#3F3F3F" font-family="Metropolis,Metropolis_MSFontService,sans-serif" font-weight="400" font-size="46" transform="matrix(1 0 0 1 1646.24 1162)">Segment Network (VNI XYZ) </text><text fill="#3F3F3F" font-family="Metropolis,Metropolis_MSFontService,sans-serif" font-weight="400" font-size="46" transform="matrix(1 0 0 1 2292.49 1162)">-</text><text fill="#3F3F3F" font-family="Metropolis,Metropolis_MSFontService,sans-serif" font-weight="700" font-size="46" transform="matrix(1 0 0 1 2322.85 1162)">MTU 9000</text><path d="M611.5 1204.5 3152.97 1204.5" stroke="#156082" stroke-width="6.875" stroke-linecap="round" stroke-miterlimit="8" fill="none" fill-rule="evenodd"/><g><g><g><path d="M784.889 1394 682 1394 682 1274 802 1274 802 1392.97 798.842 1392.97 798.842 1277.16 685.158 1277.16 685.158 1390.84 784.889 1390.84Z" fill="#0E2841"/><path d="M718.068 1326.92 720.721 1326.92 726.152 1340.46 731.487 1326.92 734.139 1326.92 727.289 1343.24 725.015 1343.24 718.068 1326.92Z" fill="#0E2841"/><path d="M762.483 1332.85 762.483 1343.24 760.112 1343.24 760.112 1333.16C760.112 1330.51 758.567 1328.65 756.351 1328.65 753.767 1328.65 751.93 1330.39 751.93 1332.84L751.93 1343.23 749.56 1343.23 749.56 1333.16C749.56 1330.51 748.015 1328.65 745.799 1328.65 743.215 1328.65 741.378 1330.39 741.378 1332.84L741.378 1343.23 739.007 1343.23 739.007 1326.91 741.378 1326.91 741.378 1329.31C742.194 1327.61 743.963 1326.53 746.11 1326.53 748.568 1326.53 750.502 1327.89 751.386 1330 752.047 1327.88 754.194 1326.53 756.662 1326.53 760.083 1326.54 762.483 1329.16 762.483 1332.85Z" fill="#0E2841"/></g></g></g><g><g><g><path d="M102.889 120 0 120 0 0 120 0 120 118.97 116.842 118.97 116.842 3.15789 3.15789 3.15789 3.15789 116.842 102.889 116.842Z" fill="#0E2841" transform="matrix(1.00833 0 0 1 1216 1274)"/><path d="M36.068 52.9166 38.7206 52.9166 44.1522 66.4615 49.4866 52.9166 52.1393 52.9166 45.2891 69.2405 43.0154 69.2405 36.068 52.9166Z" fill="#0E2841" transform="matrix(1.00833 0 0 1 1216 1274)"/><path d="M80.4826 58.8534 80.4826 69.2405 78.1117 69.2405 78.1117 59.1644C78.1117 56.5117 76.5668 54.6461 74.3514 54.6461 71.7668 54.6461 69.9303 56.3854 69.9303 58.8437L69.9303 69.2308 67.5595 69.2308 67.5595 59.1644C67.5595 56.5117 66.0146 54.6461 63.7992 54.6461 61.2146 54.6461 59.3781 56.3854 59.3781 58.8437L59.3781 69.2308 57.0073 69.2308 57.0073 52.9069 59.3781 52.9069 59.3781 55.3069C60.1943 53.6065 61.9627 52.5279 64.1101 52.5279 66.5684 52.5279 68.502 53.8882 69.3862 55.9967 70.0469 53.8785 72.1943 52.5279 74.6623 52.5279 78.0826 52.5376 80.4826 55.1611 80.4826 58.8534Z" fill="#0E2841" transform="matrix(1.00833 0 0 1 1216 1274)"/></g></g></g><path d="M742.5 1206.5 742.5 1274.12" stroke="#156082" stroke-width="6.875" stroke-miterlimit="8" fill="none" fill-rule="evenodd"/><path d="M1276.5 1204.5 1276.5 1274.62" stroke="#156082" stroke-width="6.875" stroke-miterlimit="8" fill="none" fill-rule="evenodd"/><g><g><g><path d="M102.889 120 0 120 0 0 120 0 120 118.97 116.842 118.97 116.842 3.15789 3.15789 3.15789 3.15789 116.842 102.889 116.842Z" fill="#0E2841" transform="matrix(1.00833 0 0 1 1573 1274)"/><path d="M36.068 52.9166 38.7206 52.9166 44.1522 66.4615 49.4866 52.9166 52.1393 52.9166 45.2891 69.2405 43.0154 69.2405 36.068 52.9166Z" fill="#0E2841" transform="matrix(1.00833 0 0 1 1573 1274)"/><path d="M80.4826 58.8534 80.4826 69.2405 78.1117 69.2405 78.1117 59.1644C78.1117 56.5117 76.5668 54.6461 74.3514 54.6461 71.7668 54.6461 69.9303 56.3854 69.9303 58.8437L69.9303 69.2308 67.5595 69.2308 67.5595 59.1644C67.5595 56.5117 66.0146 54.6461 63.7992 54.6461 61.2146 54.6461 59.3781 56.3854 59.3781 58.8437L59.3781 69.2308 57.0073 69.2308 57.0073 52.9069 59.3781 52.9069 59.3781 55.3069C60.1943 53.6065 61.9627 52.5279 64.1101 52.5279 66.5684 52.5279 68.502 53.8882 69.3862 55.9967 70.0469 53.8785 72.1943 52.5279 74.6623 52.5279 78.0826 52.5376 80.4826 55.1611 80.4826 58.8534Z" fill="#0E2841" transform="matrix(1.00833 0 0 1 1573 1274)"/></g></g></g><g><g><g><path d="M2051.89 1394 1949 1394 1949 1274 2069 1274 2069 1392.97 2065.84 1392.97 2065.84 1277.16 1952.16 1277.16 1952.16 1390.84 2051.89 1390.84Z" fill="#0E2841"/><path d="M1985.07 1326.92 1987.72 1326.92 1993.15 1340.46 1998.49 1326.92 2001.14 1326.92 1994.29 1343.24 1992.02 1343.24 1985.07 1326.92Z" fill="#0E2841"/><path d="M2029.48 1332.85 2029.48 1343.24 2027.11 1343.24 2027.11 1333.16C2027.11 1330.51 2025.57 1328.65 2023.35 1328.65 2020.77 1328.65 2018.93 1330.39 2018.93 1332.84L2018.93 1343.23 2016.56 1343.23 2016.56 1333.16C2016.56 1330.51 2015.01 1328.65 2012.8 1328.65 2010.21 1328.65 2008.38 1330.39 2008.38 1332.84L2008.38 1343.23 2006.01 1343.23 2006.01 1326.91 2008.38 1326.91 2008.38 1329.31C2009.19 1327.61 2010.96 1326.53 2013.11 1326.53 2015.57 1326.53 2017.5 1327.89 2018.39 1330 2019.05 1327.88 2021.19 1326.53 2023.66 1326.53 2027.08 1326.54 2029.48 1329.16 2029.48 1332.85Z" fill="#0E2841"/></g></g></g><path d="M1634.5 1204.5 1634.5 1274.62" stroke="#156082" stroke-width="6.875" stroke-miterlimit="8" fill="none" fill-rule="evenodd"/><path d="M2009.5 1206.5 2009.5 1274.12" stroke="#156082" stroke-width="6.875" stroke-miterlimit="8" fill="none" fill-rule="evenodd"/><text fill="#3F3F3F" font-family="Metropolis,Metropolis_MSFontService,sans-serif" font-weight="400" font-size="37" transform="matrix(1 0 0 1 697.298 1438)">zbox</text><text fill="#3F3F3F" font-family="Metropolis,Metropolis_MSFontService,sans-serif" font-weight="400" font-size="37" transform="matrix(1 0 0 1 1218.41 1442)">esxi</text><text fill="#3F3F3F" font-family="Metropolis,Metropolis_MSFontService,sans-serif" font-weight="400" font-size="37" transform="matrix(1 0 0 1 1286.59 1442)">-</text><text fill="#3F3F3F" font-family="Metropolis,Metropolis_MSFontService,sans-serif" font-weight="400" font-size="37" transform="matrix(1 0 0 1 1300.34 1442)">11</text><text fill="#3F3F3F" font-family="Metropolis,Metropolis_MSFontService,sans-serif" font-weight="400" font-size="37" transform="matrix(1 0 0 1 1576.78 1442)">esx</text><text fill="#3F3F3F" font-family="Metropolis,Metropolis_MSFontService,sans-serif" font-weight="400" font-size="37" transform="matrix(1 0 0 1 1636.94 1442)">-</text><text fill="#3F3F3F" font-family="Metropolis,Metropolis_MSFontService,sans-serif" font-weight="400" font-size="37" transform="matrix(1 0 0 1 1650.69 1442)">12</text><text fill="#3F3F3F" font-family="Metropolis,Metropolis_MSFontService,sans-serif" font-weight="400" font-size="37" transform="matrix(1 0 0 1 1949.08 1442)">esxi</text><text fill="#3F3F3F" font-family="Metropolis,Metropolis_MSFontService,sans-serif" font-weight="400" font-size="37" transform="matrix(1 0 0 1 2017.26 1442)">-</text><text fill="#3F3F3F" font-family="Metropolis,Metropolis_MSFontService,sans-serif" font-weight="400" font-size="37" transform="matrix(1 0 0 1 2031.01 1442)">13</text><rect x="2880" y="1207" width="276" height="60.0001" fill="#156082"/><text fill="#FFFFFF" font-family="Metropolis,Metropolis_MSFontService,sans-serif" font-weight="400" font-size="37" transform="matrix(1 0 0 1 2904.14 1250)">Native VLAN</text><text fill="#3F3F3F" font-family="Metropolis,Metropolis_MSFontService,sans-serif" font-weight="400" font-size="32" transform="matrix(1 0 0 1 2919.26 1180)">10.96.</text><text fill="#0070C0" font-family="Metropolis,Metropolis_MSFontService,sans-serif" font-weight="700" font-size="32" transform="matrix(1 0 0 1 3009.2 1180)">XX</text><text fill="#3F3F3F" font-family="Metropolis,Metropolis_MSFontService,sans-serif" font-weight="400" font-size="32" transform="matrix(1 0 0 1 3055.04 1180)">.</text><text fill="#3F3F3F" font-family="Metropolis,Metropolis_MSFontService,sans-serif" font-weight="400" font-size="32" transform="matrix(1 0 0 1 3063.06 1180)">0/26</text><g><g><g><path d="M1019.5 734.448C1073.57 734.448 1117.55 778.429 1117.55 832.5 1117.55 886.571 1073.57 930.553 1019.5 930.553 965.429 930.553 921.448 886.571 921.448 832.5 921.448 778.429 965.429 734.448 1019.5 734.448M1019.5 729C962.345 729 916 775.345 916 832.5 916 889.656 962.345 936 1019.5 936 1076.66 936 1123 889.656 1123 832.5 1123 775.345 1076.66 729 1019.5 729L1019.5 729Z" fill="#0E2841"/><path d="M977.195 827.053 937.22 827.053 937.22 837.947 977.195 837.947 977.195 847.166 1002.59 832.5 977.195 817.834Z" fill="#0E2841"/><path d="M1101.78 827.053 1061.81 827.053 1061.81 817.834 1036.41 832.5 1061.81 847.166 1061.81 837.947 1101.78 837.947Z" fill="#0E2841"/><path d="M1004.83 777.356 1014.05 777.356 1014.05 817.331 1024.95 817.331 1024.95 777.356 1034.17 777.356 1019.5 751.963Z" fill="#0E2841"/><path d="M1024.95 847.669 1014.05 847.669 1014.05 887.644 1004.83 887.644 1019.5 913.037 1034.17 887.644 1024.95 887.644Z" fill="#0E2841"/></g></g></g><path d="M1019.5 990.5 1019.5 1203.88" stroke="#156082" stroke-width="6.875" stroke-miterlimit="8" fill="none" fill-rule="evenodd"/><rect x="916" y="931" width="207" height="59.0001" fill="#0E2841"/><text fill="#FFFFFF" font-family="Metropolis,Metropolis_MSFontService,sans-serif" font-weight="400" font-size="37" transform="matrix(1 0 0 1 956.393 973)">NSX</text><text fill="#FFFFFF" font-family="Metropolis,Metropolis_MSFontService,sans-serif" font-weight="400" font-size="37" transform="matrix(1 0 0 1 1032.59 973)">-</text><text fill="#FFFFFF" font-family="Metropolis,Metropolis_MSFontService,sans-serif" font-weight="400" font-size="37" transform="matrix(1 0 0 1 1046.34 973)">T1</text><text fill="#3F3F3F" font-family="Aptos,Aptos_MSFontService,sans-serif" font-weight="400" font-size="37" transform="matrix(1 0 0 1 1036.12 1040)">.1</text><text fill="#3F3F3F" font-family="Metropolis,Metropolis_MSFontService,sans-serif" font-weight="400" font-size="37" transform="matrix(1 0 0 1 760.025 1244)">.2</text><text fill="#3F3F3F" font-family="Metropolis,Metropolis_MSFontService,sans-serif" font-weight="400" font-size="37" transform="matrix(1 0 0 1 1294.41 1244)">.11</text><text fill="#3F3F3F" font-family="Metropolis,Metropolis_MSFontService,sans-serif" font-weight="400" font-size="37" transform="matrix(1 0 0 1 1652.25 1244)">.12</text><text fill="#3F3F3F" font-family="Metropolis,Metropolis_MSFontService,sans-serif" font-weight="400" font-size="37" transform="matrix(1 0 0 1 2021.65 1243)">.13</text><text fill="#3F3F3F" font-family="Metropolis,Metropolis_MSFontService,sans-serif" font-weight="700" font-size="37" transform="matrix(1 0 0 1 952.74 1299)">DNS</text><text fill="#3F3F3F" font-family="Metropolis,Metropolis_MSFontService,sans-serif" font-weight="700" font-size="37" transform="matrix(1 0 0 1 955.031 1343)">NFS</text><text fill="#3F3F3F" font-family="Metropolis,Metropolis_MSFontService,sans-serif" font-weight="700" font-size="37" transform="matrix(1 0 0 1 940.136 1387)">DHCP</text><text fill="#3F3F3F" font-family="Metropolis,Metropolis_MSFontService,sans-serif" font-weight="700" font-size="37" transform="matrix(1 0 0 1 955.604 1431)">SSH</text><path d="M813 1260C845.033 1260 871 1264.33 871 1269.67L871 1339.33C871 1344.67 896.968 1349 929 1349 896.968 1349 871 1353.33 871 1358.67L871 1428.33C871 1433.67 845.033 1438 813 1438" stroke="#000000" stroke-width="2.29167" stroke-miterlimit="8" fill="none" fill-rule="evenodd"/><path d="M2449.5 1206.5 2449.5 1891.45" stroke="#156082" stroke-width="6.875" stroke-miterlimit="8" fill="none" fill-rule="evenodd"/><path d="M0 0 703.123 0.000360892" stroke="#156082" stroke-width="6.875" stroke-miterlimit="8" fill="none" fill-rule="evenodd" transform="matrix(-1 0 0 1 3152.62 1598.5)"/><rect x="2922" y="1598" width="231" height="59.9998" fill="#156082"/><text fill="#FFFFFF" font-family="Metropolis,Metropolis_MSFontService,sans-serif" font-weight="400" font-size="37" transform="matrix(1 0 0 1 2957.2 1641)">VLAN 64</text><text fill="#3F3F3F" font-family="Metropolis,Metropolis_MSFontService,sans-serif" font-weight="400" font-size="32" transform="matrix(1 0 0 1 2905.15 1576)">10.96.</text><text fill="#0070C0" font-family="Metropolis,Metropolis_MSFontService,sans-serif" font-weight="700" font-size="32" transform="matrix(1 0 0 1 2995.1 1576)">XX</text><text fill="#3F3F3F" font-family="Metropolis,Metropolis_MSFontService,sans-serif" font-weight="400" font-size="32" transform="matrix(1 0 0 1 3040.94 1576)">.6</text><text fill="#3F3F3F" font-family="Metropolis,Metropolis_MSFontService,sans-serif" font-weight="400" font-size="32" transform="matrix(1 0 0 1 3069.01 1576)">4</text><text fill="#3F3F3F" font-family="Metropolis,Metropolis_MSFontService,sans-serif" font-weight="400" font-size="32" transform="matrix(1 0 0 1 3089.06 1576)">/26</text><path d="M0 0 703.123 0.000360892" stroke="#156082" stroke-width="6.875" stroke-miterlimit="8" fill="none" fill-rule="evenodd" transform="matrix(-1 0 0 1 3152.62 1742.5)"/><rect x="2922" y="1742" width="231" height="58.9998" fill="#156082"/><text fill="#FFFFFF" font-family="Metropolis,Metropolis_MSFontService,sans-serif" font-weight="400" font-size="37" transform="matrix(1 0 0 1 2951.47 1784)">VLAN 128</text><text fill="#3F3F3F" font-family="Metropolis,Metropolis_MSFontService,sans-serif" font-weight="400" font-size="32" transform="matrix(1 0 0 1 2888.03 1723)">10.96.</text><text fill="#0070C0" font-family="Metropolis,Metropolis_MSFontService,sans-serif" font-weight="700" font-size="32" transform="matrix(1 0 0 1 2977.98 1723)">XX</text><text fill="#3F3F3F" font-family="Metropolis,Metropolis_MSFontService,sans-serif" font-weight="400" font-size="32" transform="matrix(1 0 0 1 3023.81 1723)">.12</text><text fill="#3F3F3F" font-family="Metropolis,Metropolis_MSFontService,sans-serif" font-weight="400" font-size="32" transform="matrix(1 0 0 1 3062.2 1723)">8</text><text fill="#3F3F3F" font-family="Metropolis,Metropolis_MSFontService,sans-serif" font-weight="400" font-size="32" transform="matrix(1 0 0 1 3081.67 1723)">/26</text><path d="M0 0 703.123 0.000360892" stroke="#156082" stroke-width="6.875" stroke-miterlimit="8" fill="none" fill-rule="evenodd" transform="matrix(-1 0 0 1 3152.62 1887.5)"/><rect x="2922" y="1885" width="231" height="59.9998" fill="#156082"/><text fill="#FFFFFF" font-family="Metropolis,Metropolis_MSFontService,sans-serif" font-weight="400" font-size="37" transform="matrix(1 0 0 1 2951.19 1928)">VLAN 192</text><text fill="#3F3F3F" font-family="Metropolis,Metropolis_MSFontService,sans-serif" font-weight="400" font-size="32" transform="matrix(1 0 0 1 2888.03 1865)">10.96.</text><text fill="#0070C0" font-family="Metropolis,Metropolis_MSFontService,sans-serif" font-weight="700" font-size="32" transform="matrix(1 0 0 1 2977.98 1865)">XX</text><text fill="#3F3F3F" font-family="Metropolis,Metropolis_MSFontService,sans-serif" font-weight="400" font-size="32" transform="matrix(1 0 0 1 3023.81 1865)">.192/26</text><path d="M3144 1538C3175.76 1538 3201.5 1542.29 3201.5 1547.58L3201.5 1747.42C3201.5 1752.71 3227.24 1757 3259 1757 3227.24 1757 3201.5 1761.29 3201.5 1766.58L3201.5 1966.42C3201.5 1971.71 3175.76 1976 3144 1976" stroke="#000000" stroke-width="2.29167" stroke-miterlimit="8" fill="none" fill-rule="evenodd"/><text fill="#3F3F3F" font-family="Metropolis,Metropolis_MSFontService,sans-serif" font-weight="400" font-size="37" transform="matrix(1 0 0 1 3287.86 1716)">Guest VLANs in </text><text fill="#3F3F3F" font-family="Metropolis,Metropolis_MSFontService,sans-serif" font-weight="400" font-size="37" transform="matrix(1 0 0 1 3321.09 1760)">Geneve VNI</text><text fill="#3F3F3F" font-family="Metropolis,Metropolis_MSFontService,sans-serif" font-weight="400" font-size="37" transform="matrix(1 0 0 1 3286.15 1804)">Routed by zbox </text><text fill="#3F3F3F" font-family="Metropolis,Metropolis_MSFontService,sans-serif" font-weight="400" font-size="37" transform="matrix(1 0 0 1 3360.33 1848)">or vyos</text><g><g><g><path d="M1019.5 388.447C1073.57 388.447 1117.55 432.428 1117.55 486.5 1117.55 540.571 1073.57 584.552 1019.5 584.552 965.429 584.552 921.448 540.571 921.448 486.5 921.448 432.428 965.429 388.447 1019.5 388.447M1019.5 383C962.345 383 916 429.344 916 486.5 916 543.655 962.345 590 1019.5 590 1076.66 590 1123 543.655 1123 486.5 1123 429.344 1076.66 383 1019.5 383L1019.5 383Z" fill="#FFC000"/><path d="M977.195 481.053 937.22 481.053 937.22 491.947 977.195 491.947 977.195 501.166 1002.59 486.5 977.195 471.834Z" fill="#FFC000"/><path d="M1101.78 481.053 1061.81 481.053 1061.81 471.834 1036.41 486.5 1061.81 501.166 1061.81 491.947 1101.78 491.947Z" fill="#FFC000"/><path d="M1004.83 431.356 1014.05 431.356 1014.05 471.331 1024.95 471.331 1024.95 431.356 1034.17 431.356 1019.5 405.963Z" fill="#FFC000"/><path d="M1024.95 501.669 1014.05 501.669 1014.05 541.644 1004.83 541.644 1019.5 567.037 1034.17 541.644 1024.95 541.644Z" fill="#FFC000"/></g></g></g><rect x="916" y="585" width="207" height="59.9998" fill="#FFC000"/><text fill="#FFFFFF" font-family="Metropolis,Metropolis_MSFontService,sans-serif" font-weight="400" font-size="37" transform="matrix(1 0 0 1 950.35 628)">NSX</text><text fill="#FFFFFF" font-family="Metropolis,Metropolis_MSFontService,sans-serif" font-weight="400" font-size="37" transform="matrix(1 0 0 1 1026.55 628)">-</text><text fill="#FFFFFF" font-family="Metropolis,Metropolis_MSFontService,sans-serif" font-weight="400" font-size="37" transform="matrix(1 0 0 1 1040.3 628)">T0</text><path d="M1019.5 645.5 1019.54 728.985" stroke="#156082" stroke-width="6.875" stroke-miterlimit="8" fill="none" fill-rule="evenodd"/><text fill="#3F3F3F" font-family="Metropolis,Metropolis_MSFontService,sans-serif" font-weight="400" font-size="37" transform="matrix(1 0 0 1 3287.73 1197)">T1</text><text fill="#3F3F3F" font-family="Metropolis,Metropolis_MSFontService,sans-serif" font-weight="400" font-size="37" transform="matrix(1 0 0 1 3334.71 1197)">Native</text><text fill="#3F3F3F" font-family="Metropolis,Metropolis_MSFontService,sans-serif" font-weight="400" font-size="37" transform="matrix(1 0 0 1 3220.7 1241)">Segment routing </text><text fill="#0E2841" font-family="Consolas,Consolas_MSFontService,sans-serif" font-weight="400" font-size="37" transform="matrix(1 0 0 1 1231.99 677)">Routing table (connected segments/static routes advertised)</text><text fill="#0E2841" font-family="Consolas,Consolas_MSFontService,sans-serif" font-weight="400" font-size="37" transform="matrix(1 0 0 1 1231.99 765)">T1 Native Segment routing</text><text fill="#0E2841" font-family="Consolas,Consolas_MSFontService,sans-serif" font-weight="400" font-size="37" transform="matrix(1 0 0 1 1231.99 809)">-</text><text fill="#0E2841" font-family="Consolas,Consolas_MSFontService,sans-serif" font-weight="700" font-size="37" transform="matrix(1 0 0 1 1272.09 809)">10.96.XX.0/26</text><text fill="#0E2841" font-family="Consolas,Consolas_MSFontService,sans-serif" font-weight="400" font-size="37" transform="matrix(1 0 0 1 1552.82 809)">Next Hop </text><text fill="#0E2841" font-family="Consolas,Consolas_MSFontService,sans-serif" font-weight="700" font-size="37" transform="matrix(1 0 0 1 1733.29 809)">10.96.XX.1</text><text fill="#0E2841" font-family="Consolas,Consolas_MSFontService,sans-serif" font-weight="400" font-size="37" transform="matrix(1 0 0 1 1953.86 809)">(T1 GW)</text><text fill="#0E2841" font-family="Consolas,Consolas_MSFontService,sans-serif" font-weight="400" font-size="37" transform="matrix(1 0 0 1 1231.99 897)">T1 Static routes</text><text fill="#0E2841" font-family="Consolas,Consolas_MSFontService,sans-serif" font-weight="400" font-size="37" transform="matrix(1 0 0 1 1231.99 941)">-</text><text fill="#0E2841" font-family="Consolas,Consolas_MSFontService,sans-serif" font-weight="700" font-size="37" transform="matrix(1 0 0 1 1272.09 941)">10.96.XX.64/26</text><text fill="#0E2841" font-family="Consolas,Consolas_MSFontService,sans-serif" font-weight="400" font-size="37" transform="matrix(1 0 0 1 1572.87 941)">Next Hop zbox/vyos IP (</text><text fill="#0E2841" font-family="Consolas,Consolas_MSFontService,sans-serif" font-weight="700" font-size="37" transform="matrix(1 0 0 1 2034.07 941)">10.96.XX.2</text><text fill="#0E2841" font-family="Consolas,Consolas_MSFontService,sans-serif" font-weight="400" font-size="37" transform="matrix(1 0 0 1 2254.64 941)">in this example)</text><text fill="#0E2841" font-family="Consolas,Consolas_MSFontService,sans-serif" font-weight="400" font-size="37" transform="matrix(1 0 0 1 1231.99 985)">-</text><text fill="#0E2841" font-family="Consolas,Consolas_MSFontService,sans-serif" font-weight="700" font-size="37" transform="matrix(1 0 0 1 1272.09 985)">10.96.XX.64/26</text><text fill="#0E2841" font-family="Consolas,Consolas_MSFontService,sans-serif" font-weight="400" font-size="37" transform="matrix(1 0 0 1 1572.87 985)">Next Hop zbox/vyos IP (</text><text fill="#0E2841" font-family="Consolas,Consolas_MSFontService,sans-serif" font-weight="700" font-size="37" transform="matrix(1 0 0 1 2034.07 985)">10.96.XX.2</text><text fill="#0E2841" font-family="Consolas,Consolas_MSFontService,sans-serif" font-weight="400" font-size="37" transform="matrix(1 0 0 1 2254.64 985)">in this example)</text><text fill="#0E2841" font-family="Consolas,Consolas_MSFontService,sans-serif" font-weight="400" font-size="37" transform="matrix(1 0 0 1 1231.99 1029)">-</text><text fill="#0E2841" font-family="Consolas,Consolas_MSFontService,sans-serif" font-weight="700" font-size="37" transform="matrix(1 0 0 1 1272.09 1029)">10.96.XX.64/26</text><text fill="#0E2841" font-family="Consolas,Consolas_MSFontService,sans-serif" font-weight="400" font-size="37" transform="matrix(1 0 0 1 1572.87 1029)">Next Hop zbox/vyos IP (</text><text fill="#0E2841" font-family="Consolas,Consolas_MSFontService,sans-serif" font-weight="700" font-size="37" transform="matrix(1 0 0 1 2034.07 1029)">10.96.XX.2</text><text fill="#0E2841" font-family="Consolas,Consolas_MSFontService,sans-serif" font-weight="400" font-size="37" transform="matrix(1 0 0 1 2254.64 1029)">in this example)</text><text fill="#3F3F3F" font-family="Metropolis,Metropolis_MSFontService,sans-serif" font-weight="400" font-size="41" transform="matrix(1 0 0 1 646.324 1549)">Each</text><text fill="#3F3F3F" font-family="Metropolis,Metropolis_MSFontService,sans-serif" font-weight="400" font-size="41" transform="matrix(1 0 0 1 754.606 1549)">zPod has 1 x </text><text fill="#3F3F3F" font-family="Metropolis,Metropolis_MSFontService,sans-serif" font-weight="700" font-size="41" transform="matrix(1 0 0 1 1008.41 1549)">/24 </text><text fill="#3F3F3F" font-family="Metropolis,Metropolis_MSFontService,sans-serif" font-weight="400" font-size="41" transform="matrix(1 0 0 1 1090.91 1549)">network provided.</text><text fill="#3F3F3F" font-family="Metropolis,Metropolis_MSFontService,sans-serif" font-weight="400" font-size="41" transform="matrix(1 0 0 1 646.324 1599)">That main network is carved into 4 x </text><text fill="#3F3F3F" font-family="Metropolis,Metropolis_MSFontService,sans-serif" font-weight="700" font-size="41" transform="matrix(1 0 0 1 1379.08 1599)">/26 </text><text fill="#3F3F3F" font-family="Metropolis,Metropolis_MSFontService,sans-serif" font-weight="400" font-size="41" transform="matrix(1 0 0 1 1461.01 1599)">where the first subnet is managed by NSX with </text><text fill="#3F3F3F" font-family="Metropolis,Metropolis_MSFontService,sans-serif" font-weight="400" font-size="41" transform="matrix(1 0 0 1 646.324 1648)">native distributed routing, mostly for the management components, and then 3 </text><text fill="#3F3F3F" font-family="Metropolis,Metropolis_MSFontService,sans-serif" font-weight="400" font-size="41" transform="matrix(1 0 0 1 646.324 1698)">remaining other subnets are available, through static routing and guest vlans (tagging </text><text fill="#3F3F3F" font-family="Metropolis,Metropolis_MSFontService,sans-serif" font-weight="400" font-size="41" transform="matrix(1 0 0 1 646.324 1747)">within your nested environment, and encapsulated into the Geneve VNI of your assigned </text><text fill="#3F3F3F" font-family="Metropolis,Metropolis_MSFontService,sans-serif" font-weight="400" font-size="41" transform="matrix(1 0 0 1 646.324 1797)">Segment)</text><text fill="#3F3F3F" font-family="Metropolis,Metropolis_MSFontService,sans-serif" font-weight="400" font-size="41" transform="matrix(1 0 0 1 646.324 1896)">It also provides you the flexibility to create your own VLANs &amp; networks within your </text><text fill="#3F3F3F" font-family="Metropolis,Metropolis_MSFontService,sans-serif" font-weight="400" font-size="41" transform="matrix(1 0 0 1 646.324 1945)">nested environment as if you were in control of your virtual TORs. </text><text fill="#3F3F3F" font-family="Metropolis,Metropolis_MSFontService,sans-serif" font-weight="400" font-size="41" transform="matrix(1 0 0 1 646.324 2022)">That said the routing of other subnets will not be advertised back to the parent lab T0 to </text><text fill="#3F3F3F" font-family="Metropolis,Metropolis_MSFontService,sans-serif" font-weight="400" font-size="41" transform="matrix(1 0 0 1 646.324 2072)">avoid any duplicate/overlapping/routes or other fancy disasters to happen...</text></g></svg>