<svg width="3937" height="2139" xmlns="http://www.w3.org/2000/svg" xmlns:xlink="http://www.w3.org/1999/xlink" xml:space="preserve" overflow="hidden" style="background-color:white"><g transform="translate(-90 -325)"><text fill="#3F3F3F" font-family="Metropolis,Metropolis_MSFontService,sans-serif" font-weight="400" font-size="46" transform="matrix(1 0 0 1 2551.08 1226)">zPod </text><text fill="#0091DA" font-family="Metropolis,Metropolis_MSFontService,sans-serif" font-weight="700" font-size="46" transform="matrix(1 0 0 1 2675.41 1226)">test</text><text fill="#3F3F3F" font-family="Metropolis,Metropolis_MSFontService,sans-serif" font-weight="400" font-size="46" transform="matrix(1 0 0 1 2775.09 1226)">Routed Network </text><path d="M818.5 1269.5 3892.87 1269.5" stroke="#0091DA" stroke-width="6.875" stroke-linecap="round" stroke-miterlimit="8" fill="none" fill-rule="evenodd"/><g><g><g><path d="M1674.89 1460 1572 1460 1572 1340 1692 1340 1692 1458.97 1688.84 1458.97 1688.84 1343.16 1575.16 1343.16 1575.16 1456.84 1674.89 1456.84Z" fill="#3F3F3F"/><path d="M1608.07 1392.92 1610.72 1392.92 1616.15 1406.46 1621.49 1392.92 1624.14 1392.92 1617.29 1409.24 1615.02 1409.24 1608.07 1392.92Z" fill="#3F3F3F"/><path d="M1652.48 1398.85 1652.48 1409.24 1650.11 1409.24 1650.11 1399.16C1650.11 1396.51 1648.57 1394.65 1646.35 1394.65 1643.77 1394.65 1641.93 1396.39 1641.93 1398.84L1641.93 1409.23 1639.56 1409.23 1639.56 1399.16C1639.56 1396.51 1638.01 1394.65 1635.8 1394.65 1633.21 1394.65 1631.38 1396.39 1631.38 1398.84L1631.38 1409.23 1629.01 1409.23 1629.01 1392.91 1631.38 1392.91 1631.38 1395.31C1632.19 1393.61 1633.96 1392.53 1636.11 1392.53 1638.57 1392.53 1640.5 1393.89 1641.39 1396 1642.05 1393.88 1644.19 1392.53 1646.66 1392.53 1650.08 1392.54 1652.48 1395.16 1652.48 1398.85Z" fill="#3F3F3F"/></g></g></g><g><g><g><path d="M2257.89 1460 2155 1460 2155 1340 2275 1340 2275 1458.97 2271.84 1458.97 2271.84 1343.16 2158.16 1343.16 2158.16 1456.84 2257.89 1456.84Z" fill="#3F3F3F"/><path d="M2191.07 1392.92 2193.72 1392.92 2199.15 1406.46 2204.49 1392.92 2207.14 1392.92 2200.29 1409.24 2198.02 1409.24 2191.07 1392.92Z" fill="#3F3F3F"/><path d="M2235.48 1398.85 2235.48 1409.24 2233.11 1409.24 2233.11 1399.16C2233.11 1396.51 2231.57 1394.65 2229.35 1394.65 2226.77 1394.65 2224.93 1396.39 2224.93 1398.84L2224.93 1409.23 2222.56 1409.23 2222.56 1399.16C2222.56 1396.51 2221.01 1394.65 2218.8 1394.65 2216.21 1394.65 2214.38 1396.39 2214.38 1398.84L2214.38 1409.23 2212.01 1409.23 2212.01 1392.91 2214.38 1392.91 2214.38 1395.31C2215.19 1393.61 2216.96 1392.53 2219.11 1392.53 2221.57 1392.53 2223.5 1393.89 2224.39 1396 2225.05 1393.88 2227.19 1392.53 2229.66 1392.53 2233.08 1392.54 2235.48 1395.16 2235.48 1398.85Z" fill="#3F3F3F"/></g></g></g><path d="M1632.5 1272.5 1632.5 1340.12" stroke="#0091DA" stroke-width="6.875" stroke-miterlimit="8" fill="none" fill-rule="evenodd"/><path d="M2215.5 1269.5 2215.5 1339.62" stroke="#0091DA" stroke-width="6.875" stroke-miterlimit="8" fill="none" fill-rule="evenodd"/><g><g><g><path d="M2614.89 1460 2512 1460 2512 1340 2632 1340 2632 1458.97 2628.84 1458.97 2628.84 1343.16 2515.16 1343.16 2515.16 1456.84 2614.89 1456.84Z" fill="#3F3F3F"/><path d="M2548.07 1392.92 2550.72 1392.92 2556.15 1406.46 2561.49 1392.92 2564.14 1392.92 2557.29 1409.24 2555.02 1409.24 2548.07 1392.92Z" fill="#3F3F3F"/><path d="M2592.48 1398.85 2592.48 1409.24 2590.11 1409.24 2590.11 1399.16C2590.11 1396.51 2588.57 1394.65 2586.35 1394.65 2583.77 1394.65 2581.93 1396.39 2581.93 1398.84L2581.93 1409.23 2579.56 1409.23 2579.56 1399.16C2579.56 1396.51 2578.01 1394.65 2575.8 1394.65 2573.21 1394.65 2571.38 1396.39 2571.38 1398.84L2571.38 1409.23 2569.01 1409.23 2569.01 1392.91 2571.38 1392.91 2571.38 1395.31C2572.19 1393.61 2573.96 1392.53 2576.11 1392.53 2578.57 1392.53 2580.5 1393.89 2581.39 1396 2582.05 1393.88 2584.19 1392.53 2586.66 1392.53 2590.08 1392.54 2592.48 1395.16 2592.48 1398.85Z" fill="#3F3F3F"/></g></g></g><g><g><g><path d="M102.889 120 0 120 0 0 120 0 120 118.97 116.842 118.97 116.842 3.15789 3.15789 3.15789 3.15789 116.842 102.889 116.842Z" fill="#3F3F3F" transform="matrix(1 0 0 1 2888 1340)"/><path d="M36.068 52.9166 38.7206 52.9166 44.1522 66.4615 49.4866 52.9166 52.1393 52.9166 45.2891 69.2405 43.0154 69.2405 36.068 52.9166Z" fill="#3F3F3F" transform="matrix(1 0 0 1 2888 1340)"/><path d="M80.4826 58.8534 80.4826 69.2405 78.1117 69.2405 78.1117 59.1644C78.1117 56.5117 76.5668 54.6461 74.3514 54.6461 71.7668 54.6461 69.9303 56.3854 69.9303 58.8437L69.9303 69.2308 67.5595 69.2308 67.5595 59.1644C67.5595 56.5117 66.0146 54.6461 63.7992 54.6461 61.2146 54.6461 59.3781 56.3854 59.3781 58.8437L59.3781 69.2308 57.0073 69.2308 57.0073 52.9069 59.3781 52.9069 59.3781 55.3069C60.1943 53.6065 61.9627 52.5279 64.1101 52.5279 66.5684 52.5279 68.502 53.8882 69.3862 55.9967 70.0469 53.8785 72.1943 52.5279 74.6623 52.5279 78.0826 52.5376 80.4826 55.1611 80.4826 58.8534Z" fill="#3F3F3F" transform="matrix(1 0 0 1 2888 1340)"/></g></g></g><path d="M2572.5 1269.5 2572.5 1339.62" stroke="#0091DA" stroke-width="6.875" stroke-miterlimit="8" fill="none" fill-rule="evenodd"/><path d="M2948.5 1272.5 2948.5 1340.12" stroke="#0091DA" stroke-width="6.875" stroke-miterlimit="8" fill="none" fill-rule="evenodd"/><text fill="#3F3F3F" font-family="Metropolis,Metropolis_MSFontService,sans-serif" font-weight="400" font-size="37" transform="matrix(1 0 0 1 1578.81 1507)">zbox</text><text fill="#3F3F3F" font-family="Metropolis,Metropolis_MSFontService,sans-serif" font-weight="400" font-size="37" transform="matrix(1 0 0 1 2157.08 1508)">esxi</text><text fill="#3F3F3F" font-family="Metropolis,Metropolis_MSFontService,sans-serif" font-weight="400" font-size="37" transform="matrix(1 0 0 1 2225.26 1508)">-</text><text fill="#3F3F3F" font-family="Metropolis,Metropolis_MSFontService,sans-serif" font-weight="400" font-size="37" transform="matrix(1 0 0 1 2239.01 1508)">11</text><text fill="#3F3F3F" font-family="Metropolis,Metropolis_MSFontService,sans-serif" font-weight="400" font-size="37" transform="matrix(1 0 0 1 2515.45 1508)">esx</text><text fill="#3F3F3F" font-family="Metropolis,Metropolis_MSFontService,sans-serif" font-weight="400" font-size="37" transform="matrix(1 0 0 1 2575.61 1508)">-</text><text fill="#3F3F3F" font-family="Metropolis,Metropolis_MSFontService,sans-serif" font-weight="400" font-size="37" transform="matrix(1 0 0 1 2589.36 1508)">12</text><text fill="#3F3F3F" font-family="Metropolis,Metropolis_MSFontService,sans-serif" font-weight="400" font-size="37" transform="matrix(1 0 0 1 2887.75 1508)">esxi</text><text fill="#3F3F3F" font-family="Metropolis,Metropolis_MSFontService,sans-serif" font-weight="400" font-size="37" transform="matrix(1 0 0 1 2955.93 1508)">-</text><text fill="#3F3F3F" font-family="Metropolis,Metropolis_MSFontService,sans-serif" font-weight="400" font-size="37" transform="matrix(1 0 0 1 2969.68 1508)">13</text><rect x="815" y="1266" width="276" height="59.9998" fill="#0091DA"/><text fill="#FFFFFF" font-family="Metropolis,Metropolis_MSFontService,sans-serif" font-weight="400" font-size="37" transform="matrix(1 0 0 1 838.997 1309)">Native VLAN</text><text fill="#3F3F3F" font-family="Metropolis,Metropolis_MSFontService,sans-serif" font-weight="400" font-size="37" transform="matrix(1 0 0 1 829.883 1252)">10.96.</text><text fill="#0070C0" font-family="Metropolis,Metropolis_MSFontService,sans-serif" font-weight="700" font-size="37" transform="matrix(1 0 0 1 932.435 1252)">XX</text><text fill="#3F3F3F" font-family="Metropolis,Metropolis_MSFontService,sans-serif" font-weight="400" font-size="37" transform="matrix(1 0 0 1 985.143 1252)">.0/26</text><g><g><g><path d="M103.5 5.44737C157.571 5.44737 201.553 49.4286 201.553 103.5 201.553 157.571 157.571 201.553 103.5 201.553 49.4286 201.553 5.44737 157.571 5.44737 103.5 5.44737 49.4286 49.4286 5.44737 103.5 5.44737M103.5 0C46.3445 0 0 46.3445 0 103.5 0 160.655 46.3445 207 103.5 207 160.655 207 207 160.655 207 103.5 207 46.3445 160.655 0 103.5 0L103.5 0Z" fill="#3F3F3F" transform="matrix(1 0 0 1 1656 794)"/><path d="M61.1949 98.0526 21.2196 98.0526 21.2196 108.947 61.1949 108.947 61.1949 118.166 86.588 103.5 61.1949 88.834Z" fill="#3F3F3F" transform="matrix(1 0 0 1 1656 794)"/><path d="M185.78 98.0526 145.805 98.0526 145.805 88.834 120.412 103.5 145.805 118.166 145.805 108.947 185.78 108.947Z" fill="#3F3F3F" transform="matrix(1 0 0 1 1656 794)"/><path d="M88.834 48.3559 98.0526 48.3559 98.0526 88.3311 108.947 88.3311 108.947 48.3559 118.166 48.3559 103.5 22.9627Z" fill="#3F3F3F" transform="matrix(1 0 0 1 1656 794)"/><path d="M108.947 118.669 98.0526 118.669 98.0526 158.644 88.834 158.644 103.5 184.037 118.166 158.644 108.947 158.644Z" fill="#3F3F3F" transform="matrix(1 0 0 1 1656 794)"/></g></g></g><path d="M1759.5 1056.5 1759.5 1269.88" stroke="#0091DA" stroke-width="6.875" stroke-miterlimit="8" fill="none" fill-rule="evenodd"/><rect x="1656" y="996" width="207" height="60.0002" fill="#3F3F3F"/><text fill="#FFFFFF" font-family="Metropolis,Metropolis_MSFontService,sans-serif" font-weight="400" font-size="37" transform="matrix(1 0 0 1 1696.12 1039)">NSX</text><text fill="#FFFFFF" font-family="Metropolis,Metropolis_MSFontService,sans-serif" font-weight="400" font-size="37" transform="matrix(1 0 0 1 1772.32 1039)">-</text><text fill="#FFFFFF" font-family="Metropolis,Metropolis_MSFontService,sans-serif" font-weight="400" font-size="37" transform="matrix(1 0 0 1 1786.07 1039)">T1</text><text fill="#3F3F3F" font-family="Metropolis,Metropolis_MSFontService,sans-serif" font-weight="400" font-size="37" transform="matrix(1 0 0 1 1775.85 1106)">.1</text><text fill="#3F3F3F" font-family="Metropolis,Metropolis_MSFontService,sans-serif" font-weight="400" font-size="37" transform="matrix(1 0 0 1 1649.54 1309)">.2</text><text fill="#3F3F3F" font-family="Metropolis,Metropolis_MSFontService,sans-serif" font-weight="400" font-size="37" transform="matrix(1 0 0 1 2233.08 1309)">.11</text><text fill="#3F3F3F" font-family="Metropolis,Metropolis_MSFontService,sans-serif" font-weight="400" font-size="37" transform="matrix(1 0 0 1 2590.91 1309)">.12</text><text fill="#3F3F3F" font-family="Metropolis,Metropolis_MSFontService,sans-serif" font-weight="400" font-size="37" transform="matrix(1 0 0 1 2960.32 1309)">.13</text><text fill="#3F3F3F" font-family="Metropolis,Metropolis_MSFontService,sans-serif" font-weight="700" font-size="37" transform="matrix(1 0 0 1 1842.26 1364)">DNS</text><text fill="#3F3F3F" font-family="Metropolis,Metropolis_MSFontService,sans-serif" font-weight="700" font-size="37" transform="matrix(1 0 0 1 1844.55 1408)">NFS</text><text fill="#3F3F3F" font-family="Metropolis,Metropolis_MSFontService,sans-serif" font-weight="700" font-size="37" transform="matrix(1 0 0 1 1829.65 1452)">DHCP</text><text fill="#3F3F3F" font-family="Metropolis,Metropolis_MSFontService,sans-serif" font-weight="700" font-size="37" transform="matrix(1 0 0 1 1845.12 1496)">SSH</text><path d="M1703 1326C1734.76 1326 1760.5 1330.29 1760.5 1335.58L1760.5 1405.42C1760.5 1410.71 1786.24 1415 1818 1415 1786.24 1415 1760.5 1419.29 1760.5 1424.58L1760.5 1494.42C1760.5 1499.71 1734.76 1504 1703 1504" stroke="#717074" stroke-width="2.29167" stroke-miterlimit="8" fill="none" fill-rule="evenodd"/><path d="M0 0 0.000360892 800.356" stroke="#0091DA" stroke-width="6.875" stroke-miterlimit="8" fill="none" fill-rule="evenodd" transform="matrix(1 0 0 -1 1201.5 2074.86)"/><path d="M0 0 384.257 0.000360892" stroke="#0091DA" stroke-width="6.875" stroke-miterlimit="8" fill="none" fill-rule="evenodd" transform="matrix(-1 0 0 1 1201.76 1435.5)"/><rect x="817" y="1435" width="230" height="59.9998" fill="#0091DA"/><text fill="#FFFFFF" font-family="Metropolis,Metropolis_MSFontService,sans-serif" font-weight="400" font-size="37" transform="matrix(1 0 0 1 851.586 1478)">VLAN 64</text><text fill="#3F3F3F" font-family="Metropolis,Metropolis_MSFontService,sans-serif" font-weight="400" font-size="32" transform="matrix(1 0 0 1 820.753 1417)">10.96.</text><text fill="#0070C0" font-family="Metropolis,Metropolis_MSFontService,sans-serif" font-weight="700" font-size="32" transform="matrix(1 0 0 1 910.701 1417)">XX</text><text fill="#3F3F3F" font-family="Metropolis,Metropolis_MSFontService,sans-serif" font-weight="400" font-size="32" transform="matrix(1 0 0 1 956.535 1417)">.64/26</text><rect x="817" y="1561" width="230" height="60.0001" fill="#0091DA"/><text fill="#FFFFFF" font-family="Metropolis,Metropolis_MSFontService,sans-serif" font-weight="400" font-size="37" transform="matrix(1 0 0 1 845.857 1604)">VLAN 128</text><text fill="#3F3F3F" font-family="Metropolis,Metropolis_MSFontService,sans-serif" font-weight="400" font-size="32" transform="matrix(1 0 0 1 820.753 1545)">10.96.</text><text fill="#0070C0" font-family="Metropolis,Metropolis_MSFontService,sans-serif" font-weight="700" font-size="32" transform="matrix(1 0 0 1 910.701 1545)">XX</text><text fill="#3F3F3F" font-family="Metropolis,Metropolis_MSFontService,sans-serif" font-weight="400" font-size="32" transform="matrix(1 0 0 1 956.535 1545)">.128/26</text><rect x="817" y="1685" width="230" height="59.9998" fill="#0091DA"/><text fill="#FFFFFF" font-family="Metropolis,Metropolis_MSFontService,sans-serif" font-weight="400" font-size="37" transform="matrix(1 0 0 1 845.57 1728)">VLAN 192</text><text fill="#3F3F3F" font-family="Metropolis,Metropolis_MSFontService,sans-serif" font-weight="400" font-size="32" transform="matrix(1 0 0 1 820.753 1675)">10.96.</text><text fill="#0070C0" font-family="Metropolis,Metropolis_MSFontService,sans-serif" font-weight="700" font-size="32" transform="matrix(1 0 0 1 910.701 1675)">XX</text><text fill="#3F3F3F" font-family="Metropolis,Metropolis_MSFontService,sans-serif" font-weight="400" font-size="32" transform="matrix(1 0 0 1 956.535 1675)">.192/26</text><path d="M837 1776C805.244 1776 779.5 1771.71 779.5 1766.42L779.5 1581.08C779.5 1575.79 753.756 1571.5 721.999 1571.5 753.756 1571.5 779.5 1567.21 779.5 1561.92L779.5 1376.58C779.5 1371.29 805.244 1367 837 1367" stroke="#717074" stroke-width="2.29167" stroke-miterlimit="8" fill="none" fill-rule="evenodd"/><text fill="#3F3F3F" font-family="Metropolis,Metropolis_MSFontService,sans-serif" font-weight="400" font-size="37" transform="matrix(1 0 0 1 219.713 1560)">Guest VLANs in Geneve VNI</text><text fill="#3F3F3F" font-family="Metropolis,Metropolis_MSFontService,sans-serif" font-weight="400" font-size="37" transform="matrix(1 0 0 1 248.359 1604)">Routed by zbox or VyOS</text><g><g><g><path d="M103.5 5.44737C157.571 5.44737 201.553 49.4286 201.553 103.5 201.553 157.571 157.571 201.553 103.5 201.553 49.4286 201.553 5.44737 157.571 5.44737 103.5 5.44737 49.4286 49.4286 5.44737 103.5 5.44737M103.5 0C46.3445 0 0 46.3445 0 103.5 0 160.655 46.3445 207 103.5 207 160.655 207 207 160.655 207 103.5 207 46.3445 160.655 0 103.5 0L103.5 0Z" fill="#EC7700" transform="matrix(1 0 0 1 1656 449)"/><path d="M61.1949 98.0526 21.2196 98.0526 21.2196 108.947 61.1949 108.947 61.1949 118.166 86.588 103.5 61.1949 88.834Z" fill="#EC7700" transform="matrix(1 0 0 1 1656 449)"/><path d="M185.78 98.0526 145.805 98.0526 145.805 88.834 120.412 103.5 145.805 118.166 145.805 108.947 185.78 108.947Z" fill="#EC7700" transform="matrix(1 0 0 1 1656 449)"/><path d="M88.834 48.3559 98.0526 48.3559 98.0526 88.3311 108.947 88.3311 108.947 48.3559 118.166 48.3559 103.5 22.9627Z" fill="#EC7700" transform="matrix(1 0 0 1 1656 449)"/><path d="M108.947 118.669 98.0526 118.669 98.0526 158.644 88.834 158.644 103.5 184.037 118.166 158.644 108.947 158.644Z" fill="#EC7700" transform="matrix(1 0 0 1 1656 449)"/></g></g></g><rect x="1656" y="651" width="207" height="59.9998" fill="#EC7700"/><text fill="#FFFFFF" font-family="Metropolis,Metropolis_MSFontService,sans-serif" font-weight="400" font-size="37" transform="matrix(1 0 0 1 1690.08 694)">NSX</text><text fill="#FFFFFF" font-family="Metropolis,Metropolis_MSFontService,sans-serif" font-weight="400" font-size="37" transform="matrix(1 0 0 1 1766.28 694)">-</text><text fill="#FFFFFF" font-family="Metropolis,Metropolis_MSFontService,sans-serif" font-weight="400" font-size="37" transform="matrix(1 0 0 1 1780.03 694)">T0</text><path d="M1759.5 711.5 1759.54 794.985" stroke="#FFC000" stroke-width="6.875" stroke-miterlimit="8" fill="none" fill-rule="evenodd"/><text fill="#3F3F3F" font-family="Metropolis,Metropolis_MSFontService,sans-serif" font-weight="400" font-size="37" transform="matrix(1 0 0 1 3340.09 1312)">NSX T1 Native Segment routing </text><text fill="#3F3F3F" font-family="JetBrainsMono Nerd Font,JetBrainsMono Nerd Font_MSFontService,sans-serif" font-weight="500" font-size="37" transform="matrix(1 0 0 1 1973.71 839)">T1 Native Segment routing</text><text fill="#3F3F3F" font-family="JetBrainsMono Nerd Font,JetBrainsMono Nerd Font_MSFontService,sans-serif" font-weight="500" font-size="37" transform="matrix(1 0 0 1 1973.71 883)">-</text><text fill="#3F3F3F" font-family="JetBrainsMono Nerd Font,JetBrainsMono Nerd Font_MSFontService,sans-serif" font-weight="500" font-size="37" transform="matrix(1 0 0 1 2017.26 883)">10.96.XX.0/26 Next Hop 10.96.XX.1 (T1 GW)</text><text fill="#3F3F3F" font-family="JetBrainsMono Nerd Font,JetBrainsMono Nerd Font_MSFontService,sans-serif" font-weight="500" font-size="37" transform="matrix(1 0 0 1 1973.71 971)">T1 Static routes:</text><text fill="#459B36" font-family="JetBrainsMono Nerd Font,JetBrainsMono Nerd Font_MSFontService,sans-serif" font-weight="500" font-size="37" transform="matrix(1 0 0 1 1973.71 1015)">-</text><text fill="#459B36" font-family="JetBrainsMono Nerd Font,JetBrainsMono Nerd Font_MSFontService,sans-serif" font-weight="500" font-size="37" transform="matrix(1 0 0 1 2017.26 1015)">10.96</text><text fill="#459B36" font-family="JetBrainsMono Nerd Font,JetBrainsMono Nerd Font_MSFontService,sans-serif" font-weight="500" font-size="37" transform="matrix(1 0 0 1 2126.11 1015)">.</text><text fill="#459B36" font-family="JetBrainsMono Nerd Font,JetBrainsMono Nerd Font_MSFontService,sans-serif" font-weight="500" font-size="37" transform="matrix(1 0 0 1 2147.88 1015)">XX</text><text fill="#459B36" font-family="JetBrainsMono Nerd Font,JetBrainsMono Nerd Font_MSFontService,sans-serif" font-weight="500" font-size="37" transform="matrix(1 0 0 1 2191.42 1015)">.</text><text fill="#459B36" font-family="JetBrainsMono Nerd Font,JetBrainsMono Nerd Font_MSFontService,sans-serif" font-weight="500" font-size="37" transform="matrix(1 0 0 1 2213.19 1015)">64/26 Next Hop zbox/vyos IP (10.96.XX.2)</text><text fill="#459B36" font-family="JetBrainsMono Nerd Font,JetBrainsMono Nerd Font_MSFontService,sans-serif" font-weight="500" font-size="37" transform="matrix(1 0 0 1 1973.71 1059)">-</text><text fill="#459B36" font-family="JetBrainsMono Nerd Font,JetBrainsMono Nerd Font_MSFontService,sans-serif" font-weight="500" font-size="37" transform="matrix(1 0 0 1 2017.26 1059)">10.96</text><text fill="#459B36" font-family="JetBrainsMono Nerd Font,JetBrainsMono Nerd Font_MSFontService,sans-serif" font-weight="500" font-size="37" transform="matrix(1 0 0 1 2126.11 1059)">.</text><text fill="#459B36" font-family="JetBrainsMono Nerd Font,JetBrainsMono Nerd Font_MSFontService,sans-serif" font-weight="500" font-size="37" transform="matrix(1 0 0 1 2147.88 1059)">XX</text><text fill="#459B36" font-family="JetBrainsMono Nerd Font,JetBrainsMono Nerd Font_MSFontService,sans-serif" font-weight="500" font-size="37" transform="matrix(1 0 0 1 2191.42 1059)">.</text><text fill="#459B36" font-family="JetBrainsMono Nerd Font,JetBrainsMono Nerd Font_MSFontService,sans-serif" font-weight="500" font-size="37" transform="matrix(1 0 0 1 2213.19 1059)">128/26 Next Hop zbox/vyos IP (10.96.XX.2)</text><text fill="#459B36" font-family="JetBrainsMono Nerd Font,JetBrainsMono Nerd Font_MSFontService,sans-serif" font-weight="500" font-size="37" transform="matrix(1 0 0 1 1973.71 1103)">-</text><text fill="#459B36" font-family="JetBrainsMono Nerd Font,JetBrainsMono Nerd Font_MSFontService,sans-serif" font-weight="500" font-size="37" transform="matrix(1 0 0 1 2017.26 1103)">10.96</text><text fill="#459B36" font-family="JetBrainsMono Nerd Font,JetBrainsMono Nerd Font_MSFontService,sans-serif" font-weight="500" font-size="37" transform="matrix(1 0 0 1 2126.11 1103)">.</text><text fill="#459B36" font-family="JetBrainsMono Nerd Font,JetBrainsMono Nerd Font_MSFontService,sans-serif" font-weight="500" font-size="37" transform="matrix(1 0 0 1 2147.88 1103)">XX</text><text fill="#459B36" font-family="JetBrainsMono Nerd Font,JetBrainsMono Nerd Font_MSFontService,sans-serif" font-weight="500" font-size="37" transform="matrix(1 0 0 1 2191.42 1103)">.</text><text fill="#459B36" font-family="JetBrainsMono Nerd Font,JetBrainsMono Nerd Font_MSFontService,sans-serif" font-weight="500" font-size="37" transform="matrix(1 0 0 1 2213.19 1103)">192/26 Next Hop zbox/vyos IP (10.96.XX.2)</text><text fill="#3F3F3F" font-family="Metropolis,Metropolis_MSFontService,sans-serif" font-weight="400" font-size="41" transform="matrix(1 0 0 1 2042.48 1592)">Each zPod has 1 x </text><text fill="#3F3F3F" font-family="Metropolis,Metropolis_MSFontService,sans-serif" font-weight="700" font-size="41" transform="matrix(1 0 0 1 2404.56 1592)">/24 </text><text fill="#3F3F3F" font-family="Metropolis,Metropolis_MSFontService,sans-serif" font-weight="400" font-size="41" transform="matrix(1 0 0 1 2487.06 1592)">network </text><text fill="#3F3F3F" font-family="Metropolis,Metropolis_MSFontService,sans-serif" font-weight="400" font-size="41" transform="matrix(1 0 0 1 2662.37 1592)">provided.</text><text fill="#3F3F3F" font-family="Metropolis,Metropolis_MSFontService,sans-serif" font-weight="400" font-size="41" transform="matrix(1 0 0 1 2042.48 1642)">That main network is carved into 4 x </text><text fill="#3F3F3F" font-family="Metropolis,Metropolis_MSFontService,sans-serif" font-weight="700" font-size="41" transform="matrix(1 0 0 1 2775.24 1642)">/26</text><text fill="#3F3F3F" font-family="Metropolis,Metropolis_MSFontService,sans-serif" font-weight="700" font-size="41" transform="matrix(1 0 0 1 2845.71 1642)">:</text><text fill="#3F3F3F" font-family="Metropolis,Metropolis_MSFontService,sans-serif" font-weight="700" font-size="41" transform="matrix(1 0 0 1 2042.48 1719)">-</text><text fill="#3F3F3F" font-family="Metropolis,Metropolis_MSFontService,sans-serif" font-weight="700" font-size="41" transform="matrix(1 0 0 1 2068.83 1719)">T</text><text fill="#3F3F3F" font-family="Metropolis,Metropolis_MSFontService,sans-serif" font-weight="700" font-size="41" transform="matrix(1 0 0 1 2095.19 1719)">he </text><text fill="#3F3F3F" font-family="Metropolis,Metropolis_MSFontService,sans-serif" font-weight="700" font-size="41" transform="matrix(1 0 0 1 2156.49 1719)">first subnet is managed by </text><text fill="#3F3F3F" font-family="Metropolis,Metropolis_MSFontService,sans-serif" font-weight="700" font-size="41" transform="matrix(1 0 0 1 2709.35 1719)">NSX </text><text fill="#3F3F3F" font-family="Metropolis,Metropolis_MSFontService,sans-serif" font-weight="700" font-size="41" transform="matrix(1 0 0 1 2808.47 1719)">(Native VLAN) </text><text fill="#3F3F3F" font-family="Metropolis,Metropolis_MSFontService,sans-serif" font-weight="400" font-size="41" transform="matrix(1 0 0 1 3115.55 1719)">with </text><text fill="#3F3F3F" font-family="Metropolis,Metropolis_MSFontService,sans-serif" font-weight="400" font-size="41" transform="matrix(1 0 0 1 3211.23 1719)">the </text><text fill="#3F3F3F" font-family="Metropolis,Metropolis_MSFontService,sans-serif" font-weight="700" font-size="41" transform="matrix(1 0 0 1 3288 1719)">T1</text><text fill="#3F3F3F" font-family="Metropolis,Metropolis_MSFontService,sans-serif" font-weight="400" font-size="41" transform="matrix(1 0 0 1 3343.57 1719)">distributed router</text><text fill="#3F3F3F" font-family="Metropolis,Metropolis_MSFontService,sans-serif" font-weight="400" font-size="41" transform="matrix(1 0 0 1 3692.48 1719)">, </text><text fill="#3F3F3F" font-family="Metropolis,Metropolis_MSFontService,sans-serif" font-weight="400" font-size="41" transform="matrix(1 0 0 1 3715.39 1719)">used</text><text fill="#3F3F3F" font-family="Metropolis,Metropolis_MSFontService,sans-serif" font-weight="400" font-size="41" transform="matrix(1 0 0 1 3823.67 1719)">for the </text><text fill="#3F3F3F" font-family="Metropolis,Metropolis_MSFontService,sans-serif" font-weight="400" font-size="41" transform="matrix(1 0 0 1 2042.48 1768)">management components</text><text fill="#3F3F3F" font-family="Metropolis,Metropolis_MSFontService,sans-serif" font-weight="400" font-size="41" transform="matrix(1 0 0 1 2574.14 1768)">in your zPod.</text><text fill="#3F3F3F" font-family="Metropolis,Metropolis_MSFontService,sans-serif" font-weight="400" font-size="41" transform="matrix(1 0 0 1 2042.48 1845)">-</text><text fill="#3F3F3F" font-family="Metropolis,Metropolis_MSFontService,sans-serif" font-weight="400" font-size="41" transform="matrix(1 0 0 1 2069.98 1845)">T</text><text fill="#3F3F3F" font-family="Metropolis,Metropolis_MSFontService,sans-serif" font-weight="400" font-size="41" transform="matrix(1 0 0 1 2095.76 1845)">hen </text><text fill="#3F3F3F" font-family="Metropolis,Metropolis_MSFontService,sans-serif" font-weight="700" font-size="41" transform="matrix(1 0 0 1 2181.7 1845)">3 other subnets </text><text fill="#3F3F3F" font-family="Metropolis,Metropolis_MSFontService,sans-serif" font-weight="700" font-size="41" transform="matrix(1 0 0 1 2511.12 1845)">are available</text><text fill="#3F3F3F" font-family="Metropolis,Metropolis_MSFontService,sans-serif" font-weight="700" font-size="41" transform="matrix(1 0 0 1 2783.26 1845)">(VLAN 64/128/192)</text><text fill="#3F3F3F" font-family="Metropolis,Metropolis_MSFontService,sans-serif" font-weight="400" font-size="41" transform="matrix(1 0 0 1 3172.84 1845)">, </text><text fill="#3F3F3F" font-family="Metropolis,Metropolis_MSFontService,sans-serif" font-weight="400" font-size="41" transform="matrix(1 0 0 1 3195.76 1845)">through static routing and Guest VLANs </text><text fill="#3F3F3F" font-family="Metropolis,Metropolis_MSFontService,sans-serif" font-weight="400" font-size="41" transform="matrix(1 0 0 1 2042.48 1895)">(tagging within your nested environment, and encapsulated into the Geneve VNI of your assigned </text><text fill="#3F3F3F" font-family="Metropolis,Metropolis_MSFontService,sans-serif" font-weight="400" font-size="41" transform="matrix(1 0 0 1 2042.48 1944)">Segment)</text><text fill="#3F3F3F" font-family="Metropolis,Metropolis_MSFontService,sans-serif" font-weight="400" font-size="41" transform="matrix(1 0 0 1 2042.48 2043)">It also provides you the flexibility to create your own VLANs &amp; networks within your nested </text><text fill="#3F3F3F" font-family="Metropolis,Metropolis_MSFontService,sans-serif" font-weight="400" font-size="41" transform="matrix(1 0 0 1 2042.48 2093)">environment as if you were in control of you virtual TORs. that said the routing of other subnets </text><text fill="#3F3F3F" font-family="Metropolis,Metropolis_MSFontService,sans-serif" font-weight="400" font-size="41" transform="matrix(1 0 0 1 2042.48 2142)">will not be advertised back </text><text fill="#3F3F3F" font-family="Metropolis,Metropolis_MSFontService,sans-serif" font-weight="400" font-size="41" transform="matrix(1 0 0 1 2586.17 2142)">to the</text><text fill="#3F3F3F" font-family="Metropolis,Metropolis_MSFontService,sans-serif" font-weight="400" font-size="41" transform="matrix(1 0 0 1 2716.23 2142)">overall lab</text><text fill="#3F3F3F" font-family="Metropolis,Metropolis_MSFontService,sans-serif" font-weight="700" font-size="41" transform="matrix(1 0 0 1 2931.07 2142)">T0</text><text fill="#3F3F3F" font-family="Metropolis,Metropolis_MSFontService,sans-serif" font-weight="400" font-size="41" transform="matrix(1 0 0 1 2998.67 2142)">to </text><text fill="#3F3F3F" font-family="Metropolis,Metropolis_MSFontService,sans-serif" font-weight="400" font-size="41" transform="matrix(1 0 0 1 3051.96 2142)">avoid any duplicate/routes or other fancy </text><text fill="#3F3F3F" font-family="Metropolis,Metropolis_MSFontService,sans-serif" font-weight="400" font-size="41" transform="matrix(1 0 0 1 2042.48 2192)">disasters ...</text><text fill="#3F3F3F" font-family="Metropolis,Metropolis_MSFontService,sans-serif" font-weight="400" font-size="41" transform="matrix(1 0 0 1 2042.48 2269)">You are free to add a VyOS/network appliance to manage any subnets created on guest VLANs </text><text fill="#3F3F3F" font-family="Metropolis,Metropolis_MSFontService,sans-serif" font-weight="400" font-size="41" transform="matrix(1 0 0 1 2042.48 2318)">(for example VLAN 109 with 192.168.1.0/24) and route them back/NAT as you wish and can </text><text fill="#3F3F3F" font-family="Metropolis,Metropolis_MSFontService,sans-serif" font-weight="400" font-size="41" transform="matrix(1 0 0 1 2042.48 2368)">potentially advertise them via static routes through your zPod T1.</text><rect x="3621" y="1151" width="276" height="121" fill="#0091DA"/><text fill="#FFFFFF" font-family="Metropolis,Metropolis_MSFontService,sans-serif" font-weight="400" font-size="37" transform="matrix(1 0 0 1 3682.95 1202)">GENEVE </text><text fill="#FFFFFF" font-family="Metropolis,Metropolis_MSFontService,sans-serif" font-weight="400" font-size="37" transform="matrix(1 0 0 1 3680.08 1246)">Segment</text><text fill="#3F3F3F" font-family="Metropolis,Metropolis_MSFontService,sans-serif" font-weight="400" font-size="41" transform="matrix(1 0 0 1 1333.01 1726)">-</text><text fill="#3F3F3F" font-family="Metropolis,Metropolis_MSFontService,sans-serif" font-weight="400" font-size="41" transform="matrix(1 0 0 1 1360.51 1726)">eth1.64</text><text fill="#3F3F3F" font-family="Metropolis,Metropolis_MSFontService,sans-serif" font-weight="400" font-size="41" transform="matrix(1 0 0 1 1501.45 1726)">: 10.96.</text><text fill="#0070C0" font-family="Metropolis,Metropolis_MSFontService,sans-serif" font-weight="700" font-size="41" transform="matrix(1 0 0 1 1638.95 1726)">XX</text><text fill="#3F3F3F" font-family="Metropolis,Metropolis_MSFontService,sans-serif" font-weight="400" font-size="41" transform="matrix(1 0 0 1 1697.39 1726)">.65/26</text><text fill="#3F3F3F" font-family="Metropolis,Metropolis_MSFontService,sans-serif" font-weight="400" font-size="41" transform="matrix(1 0 0 1 1333.01 1783)">-</text><text fill="#3F3F3F" font-family="Metropolis,Metropolis_MSFontService,sans-serif" font-weight="400" font-size="41" transform="matrix(1 0 0 1 1360.51 1783)">eth1.128</text><text fill="#3F3F3F" font-family="Metropolis,Metropolis_MSFontService,sans-serif" font-weight="400" font-size="41" transform="matrix(1 0 0 1 1513.48 1783)">: 10.96.</text><text fill="#0070C0" font-family="Metropolis,Metropolis_MSFontService,sans-serif" font-weight="700" font-size="41" transform="matrix(1 0 0 1 1650.98 1783)">XX</text><text fill="#3F3F3F" font-family="Metropolis,Metropolis_MSFontService,sans-serif" font-weight="400" font-size="41" transform="matrix(1 0 0 1 1709.42 1783)">.129/26</text><text fill="#3F3F3F" font-family="Metropolis,Metropolis_MSFontService,sans-serif" font-weight="400" font-size="41" transform="matrix(1 0 0 1 1333.84 1840)">-</text><text fill="#3F3F3F" font-family="Metropolis,Metropolis_MSFontService,sans-serif" font-weight="400" font-size="41" transform="matrix(1 0 0 1 1361.34 1840)">eth1.192</text><text fill="#3F3F3F" font-family="Metropolis,Metropolis_MSFontService,sans-serif" font-weight="400" font-size="41" transform="matrix(1 0 0 1 1514.88 1840)">: 10.96.</text><text fill="#0070C0" font-family="Metropolis,Metropolis_MSFontService,sans-serif" font-weight="700" font-size="41" transform="matrix(1 0 0 1 1652.38 1840)">XX</text><text fill="#3F3F3F" font-family="Metropolis,Metropolis_MSFontService,sans-serif" font-weight="400" font-size="41" transform="matrix(1 0 0 1 1710.82 1840)">.193/26</text><path d="M0 0 384.257 0.000360892" stroke="#0091DA" stroke-width="6.875" stroke-miterlimit="8" fill="none" fill-rule="evenodd" transform="matrix(-1 0 0 1 1201.76 1560.5)"/><path d="M0 0 384.257 0.000360892" stroke="#0091DA" stroke-width="6.875" stroke-miterlimit="8" fill="none" fill-rule="evenodd" transform="matrix(-1 0 0 1 1201.76 1685.5)"/><path d="M0 0 370.631 0.000360892" stroke="#0091DA" stroke-width="6.875" stroke-miterlimit="8" fill="none" fill-rule="evenodd" transform="matrix(-1 0 0 1 1572.13 1400.5)"/><text fill="#3F3F3F" font-family="Metropolis,Metropolis_MSFontService,sans-serif" font-weight="400" font-size="37" transform="matrix(1 0 0 1 1539.12 1325)">eth0</text><text fill="#3F3F3F" font-family="Metropolis,Metropolis_MSFontService,sans-serif" font-weight="400" font-size="37" transform="matrix(1 0 0 1 1495.2 1442)">eth1</text><text fill="#3F3F3F" font-family="Metropolis,Metropolis_MSFontService,sans-serif" font-weight="400" font-size="41" transform="matrix(1 0 0 1 1333.01 1669)">-</text><text fill="#3F3F3F" font-family="Metropolis,Metropolis_MSFontService,sans-serif" font-weight="400" font-size="41" transform="matrix(1 0 0 1 1360.51 1669)">eth0</text><text fill="#3F3F3F" font-family="Metropolis,Metropolis_MSFontService,sans-serif" font-weight="400" font-size="41" transform="matrix(1 0 0 1 1453.9 1669)">: 10.96.</text><text fill="#0070C0" font-family="Metropolis,Metropolis_MSFontService,sans-serif" font-weight="700" font-size="41" transform="matrix(1 0 0 1 1591.4 1669)">XX</text><text fill="#3F3F3F" font-family="Metropolis,Metropolis_MSFontService,sans-serif" font-weight="400" font-size="41" transform="matrix(1 0 0 1 1649.83 1669)">.2/26</text><text fill="#7F35B2" font-family="Metropolis,Metropolis_MSFontService,sans-serif" font-weight="400" font-size="41" transform="matrix(1 0 0 1 1325.87 1602)">Default </text><text fill="#7F35B2" font-family="Metropolis,Metropolis_MSFontService,sans-serif" font-weight="400" font-size="41" transform="matrix(1 0 0 1 1481.14 1602)">zBox </text><text fill="#7F35B2" font-family="Metropolis,Metropolis_MSFontService,sans-serif" font-weight="400" font-size="41" transform="matrix(1 0 0 1 1591.14 1602)">Network </text><text fill="#7F35B2" font-family="Metropolis,Metropolis_MSFontService,sans-serif" font-weight="400" font-size="41" transform="matrix(1 0 0 1 1773.32 1602)">Config</text><path d="M1869.58 949.388 1886.32 969.116 1894.47 979.025 1902.34 988.969 1909.84 998.962 1916.88 1009.02 1923.36 1019.14 1929.18 1029.35 1934.26 1039.66 1938.49 1050.08 1941.77 1060.62 1944.02 1071.29 1945.12 1082.1 1944.98 1093.06 1943.49 1104.16 1942.21 1109.82 1940.56 1115.46 1938.37 1121.26 1935.51 1127.25 1932.05 1133.39 1928.03 1139.68 1923.48 1146.09 1918.45 1152.62 1912.99 1159.24 1907.12 1165.95 1894.37 1179.53 1880.51 1193.27 1865.86 1207.01 1850.78 1220.61 1835.58 1233.93 1820.59 1246.84 1806.15 1259.2 1792.59 1270.86 1786.24 1276.38 1780.24 1281.67 1774.62 1286.72 1769.82 1291.43 1767.41 1288.98 1772.32 1284.17 1777.96 1279.09 1783.99 1273.78 1790.35 1268.25 1803.92 1256.58 1818.35 1244.24 1833.31 1231.35 1848.48 1218.05 1863.51 1204.5 1878.09 1190.83 1891.87 1177.18 1904.53 1163.68 1910.34 1157.05 1915.73 1150.52 1920.68 1144.1 1925.13 1137.82 1929.06 1131.71 1932.41 1125.77 1935.15 1120.04 1937.26 1114.5 1938.86 1109.06 1940.09 1103.7 1941.54 1093.01 1941.7 1082.45 1940.65 1072 1938.49 1061.64 1935.3 1051.37 1931.17 1041.18 1926.19 1031.06 1920.46 1021 1914.06 1010.99 1907.09 1001.03 1899.64 991.103 1891.81 981.209 1883.7 971.34 1866.96 951.612ZM1781.61 1296.62 1752.5 1306.5 1762.06 1277.28Z" fill="#76BE1B"/><rect x="818" y="1863" width="230" height="59.9998" fill="#0091DA"/><text fill="#FFFFFF" font-family="Metropolis,Metropolis_MSFontService,sans-serif" font-weight="400" font-size="37" transform="matrix(1 0 0 1 845.089 1906)">VLAN </text><text fill="#FFFFFF" font-family="Metropolis,Metropolis_MSFontService,sans-serif" font-weight="400" font-size="37" transform="matrix(1 0 0 1 959.672 1906)">109</text><path d="M0 0 384.257 0.000360892" stroke="#0091DA" stroke-width="6.875" stroke-miterlimit="8" fill="none" fill-rule="evenodd" transform="matrix(-1 0 0 1 1202.76 1863.5)"/><rect x="817" y="2074" width="230" height="60.0002" fill="#0091DA"/><text fill="#FFFFFF" font-family="Metropolis,Metropolis_MSFontService,sans-serif" font-weight="400" font-size="37" transform="matrix(1 0 0 1 841.846 2117)">VLAN </text><text fill="#FFFFFF" font-family="Metropolis,Metropolis_MSFontService,sans-serif" font-weight="400" font-size="37" transform="matrix(1 0 0 1 956.429 2117)">235</text><path d="M0 0 384.257 0.000360892" stroke="#0091DA" stroke-width="6.875" stroke-miterlimit="8" fill="none" fill-rule="evenodd" transform="matrix(-1 0 0 1 1201.76 2074.5)"/><path d="M837 2148C805.244 2148 779.5 2143.71 779.5 2138.42L779.5 1983.08C779.5 1977.79 753.756 1973.5 722 1973.5 753.756 1973.5 779.5 1969.21 779.5 1963.92L779.5 1808.58C779.5 1803.29 805.244 1799 837 1799" stroke="#717074" stroke-width="2.29167" stroke-miterlimit="8" fill="none" fill-rule="evenodd"/><text fill="#3F3F3F" font-family="Metropolis,Metropolis_MSFontService,sans-serif" font-weight="400" font-size="37" transform="matrix(1 0 0 1 350.935 1937)">Add your own </text><text fill="#3F3F3F" font-family="Metropolis,Metropolis_MSFontService,sans-serif" font-weight="400" font-size="37" transform="matrix(1 0 0 1 297.929 1981)">VLANs/Subnets and </text><text fill="#3F3F3F" font-family="Metropolis,Metropolis_MSFontService,sans-serif" font-weight="400" font-size="37" transform="matrix(1 0 0 1 252.966 2025)">manage them via zbox or </text><text fill="#3F3F3F" font-family="Metropolis,Metropolis_MSFontService,sans-serif" font-weight="400" font-size="37" transform="matrix(1 0 0 1 268.435 2069)">VyOS (or any preferred </text><text fill="#3F3F3F" font-family="Metropolis,Metropolis_MSFontService,sans-serif" font-weight="400" font-size="37" transform="matrix(1 0 0 1 307.668 2113)">network appliance)</text><text fill="#3F3F3F" font-family="Metropolis,Metropolis_MSFontService,sans-serif" font-weight="400" font-size="32" transform="matrix(1 0 0 1 817.903 1842)">192.168.109.0/24</text><text fill="#3F3F3F" font-family="Metropolis,Metropolis_MSFontService,sans-serif" font-weight="400" font-size="32" transform="matrix(1 0 0 1 816.665 2053)">172.16.235.0/24</text><rect x="189" y="1781" width="405" height="69.0001" fill="#9F2842"/><text fill="#FFFFFF" font-family="Metropolis,Metropolis_MSFontService,sans-serif" font-weight="400" font-size="37" transform="matrix(1 0 0 1 229.608 1829)">N</text><text fill="#FFFFFF" font-family="Metropolis,Metropolis_MSFontService,sans-serif" font-weight="400" font-size="37" transform="matrix(1 0 0 1 257.681 1829)">OT BY DEFAULT</text><rect x="191.5" y="1786.5" width="1074" height="396" stroke="#9F2842" stroke-width="6.875" stroke-linecap="square" stroke-linejoin="round" stroke-miterlimit="10" stroke-dasharray="20.625 6.875" fill="none"/></g></svg>