<svg width="4133" height="2233" xmlns="http://www.w3.org/2000/svg" xmlns:xlink="http://www.w3.org/1999/xlink" xml:space="preserve" overflow="hidden" style="background-color:white"><defs><clipPath id="clip0"><rect x="1993" y="180" width="366" height="210"/></clipPath><clipPath id="clip1"><rect x="1993" y="180" width="366" height="210"/></clipPath><clipPath id="clip2"><rect x="1993" y="180" width="366" height="210"/></clipPath></defs><g transform="translate(-103 -104)"><g><g><g><path d="M2243.9 928 2099 928 2099 759 2268 759 2268 926.55 2263.55 926.55 2263.55 763.447 2103.45 763.447 2103.45 923.553 2243.9 923.553Z" fill="#3F3F3F"/><path d="M2149.8 833.524 2153.53 833.524 2161.18 852.6 2168.69 833.524 2172.43 833.524 2162.78 856.514 2159.58 856.514 2149.8 833.524Z" fill="#3F3F3F"/><path d="M2212.35 841.885 2212.35 856.514 2209.01 856.514 2209.01 842.323C2209.01 838.587 2206.83 835.96 2203.71 835.96 2200.07 835.96 2197.49 838.41 2197.49 841.872L2197.49 856.5 2194.15 856.5 2194.15 842.323C2194.15 838.587 2191.97 835.96 2188.85 835.96 2185.21 835.96 2182.62 838.41 2182.62 841.872L2182.62 856.5 2179.29 856.5 2179.29 833.511 2182.62 833.511 2182.62 836.891C2183.77 834.496 2186.26 832.977 2189.29 832.977 2192.75 832.977 2195.47 834.893 2196.72 837.862 2197.65 834.879 2200.67 832.977 2204.15 832.977 2208.97 832.991 2212.35 836.685 2212.35 841.885Z" fill="#3F3F3F"/></g></g></g><rect x="2034" y="924" width="292" height="83.9999" fill="#3F3F3F"/><text fill="#FFFFFF" font-family="Metropolis,Metropolis_MSFontService,sans-serif" font-weight="400" font-size="37" transform="matrix(1 0 0 1 2067.49 979)">zPodFactory</text><g clip-path="url(#clip0)"><g clip-path="url(#clip1)"><g clip-path="url(#clip2)"><path d="M235.639 9.60526C236.201 9.60526 236.762 9.60526 237.353 9.63482 272.287 10.4919 301.31 40.3421 304.827 79.0883L305.536 87.0089 313.457 87.7773C337.692 90.0826 356.104 114.849 355.365 144.138 354.715 174.018 334.027 198.312 309.26 198.312 308.935 198.312 308.58 198.312 308.196 198.312 307.487 198.312 305.27 198.282 301.812 198.282 284.257 198.282 232.536 198.46 182.5 198.637 132.08 198.814 79.9749 198.992 62.1535 198.992 58.8729 198.992 56.7745 198.992 56.1243 198.962 31.653 198.312 9.04373 175.082 9.60526 151.202 10.1668 127.44 29.8502 108.111 53.4644 108.111 53.819 108.111 54.1737 108.111 54.5875 108.111 58.3705 108.2 62.0057 108.702 65.4045 109.648L75.2166 112.367 77.3445 102.407C83.0782 75.719 106.751 56.3607 133.646 56.3607 134.119 56.3607 134.592 56.3607 135.035 56.3903 143.37 56.6267 151.231 58.4887 158.383 61.9466L167.752 66.498 171.506 56.7745C182.677 28.1065 207.828 9.60526 235.639 9.60526M235.639 0C203.011 0 174.786 21.9296 162.639 53.2871 154.334 49.2676 145.172 47.0215 135.39 46.7555 134.828 46.7555 134.267 46.7259 133.735 46.7259 101.609 46.7259 74.6551 69.5421 68.0348 100.368 63.8381 99.215 59.3753 98.5943 54.8534 98.4761 54.4101 98.4761 53.9668 98.4466 53.553 98.4466 24.5304 98.5057 0.709312 121.736 0 150.965-0.709312 180.638 26.3332 207.769 55.8583 208.567 56.5972 208.567 58.7842 208.597 62.1535 208.597 97.7077 208.597 266.642 207.858 301.812 207.858 305.152 207.858 307.28 207.858 307.989 207.887 308.403 207.887 308.817 207.917 309.26 207.917 339.288 207.917 364.202 179.604 364.97 144.345 365.857 109.677 343.396 80.9798 314.373 78.2016 310.442 35.0518 277.962 1.00486 237.59 0.0295547 236.94 0 236.29 0 235.639 0L235.639 0Z" fill="#717074" transform="matrix(1 0 0 1.00004 1993 180.198)"/></g></g></g><text fill="#3F3F3F" font-family="Metropolis,Metropolis_MSFontService,sans-serif" font-weight="700" font-size="50" transform="matrix(1 0 0 1 2052.59 341)">INTERNET</text><rect x="230" y="1576" width="818" height="687" fill="#DCEAF7"/><g><g><g><path d="M633.781 2083.53C612.733 2086.06 591.748 2078.35 577.339 2062.8 588.294 2066.47 599.77 2068.34 611.322 2068.35 615.472 2068.35 619.618 2068.1 623.739 2067.61 621.89 2063.24 620.596 2058.66 619.887 2053.97 606.463 2045.19 595.389 2033.26 587.629 2019.21 590.422 2016.09 590.55 2011.41 587.933 2008.14 595.596 1996.28 605.85 1986.32 617.923 1979 621.018 1982.59 626.439 1982.99 630.029 1979.89 630.125 1979.81 630.219 1979.72 630.312 1979.64 632.204 1980.92 634.055 1982.26 635.866 1983.67L642.233 1980.87C639.281 1978.42 636.202 1976.14 633.009 1974.02 633.009 1973.8 633.042 1973.58 633.042 1973.36 633.042 1972.8 632.987 1972.24 632.878 1971.69 643.384 1967.69 654.534 1965.64 665.776 1965.65 666.417 1965.65 667.057 1965.68 667.702 1965.69 668.745 1966.53 669.755 1967.41 670.746 1968.31L678.165 1965.04C664.307 1951.22 645.536 1943.47 625.969 1943.47 585.161 1943.47 551.959 1976.66 551.959 2017.48 551.959 2058.29 585.151 2091.48 625.969 2091.48 630.765 2091.48 635.55 2091.01 640.256 2090.08 637.964 2088.03 635.801 2085.84 633.781 2083.53ZM625.969 1950.95C637.551 1950.95 648.931 1953.97 658.984 1959.73 648.872 1960.41 638.929 1962.67 629.508 1966.4 626.51 1964.21 622.44 1964.19 619.428 1966.37 611.797 1962.75 603.76 1960.07 595.488 1958.37 604.905 1953.49 615.36 1950.94 625.969 1950.95ZM587.433 1963.3C597.323 1964.6 606.959 1967.39 616.011 1971.58 615.912 1972.07 615.856 1972.57 615.843 1973.08 602.435 1980.98 591.067 1991.92 582.65 2005.01 582.187 2004.93 581.718 2004.89 581.248 2004.89L581.201 2004.89C577.635 1995.04 575.705 1984.68 575.488 1974.22 579.016 1970.11 583.027 1966.44 587.433 1963.3ZM559.439 2017.48C559.424 2004.91 562.992 1992.6 569.724 1981.98 570.547 1990.57 572.454 1999.02 575.399 2007.13 571.882 2010.31 571.607 2015.74 574.785 2019.26 574.833 2019.31 574.882 2019.36 574.932 2019.42 570.886 2028.84 568.344 2038.84 567.4 2049.05 562.155 2039.35 559.419 2028.5 559.439 2017.48ZM573.239 2054.7C573.661 2043.48 576.132 2032.42 580.532 2022.08 580.757 2022.08 581 2022.12 581.21 2022.12 581.532 2022.12 581.854 2022.1 582.173 2022.06 590.98 2038.06 603.819 2051.47 619.414 2060.97L620.686 2061.72C604.536 2063.23 588.26 2060.82 573.239 2054.7Z" fill="#0065AB"/><path d="M685.318 2103.14 681.064 2103.14 679.965 2102.07C678.268 2100.41 674.589 2098.33 670.33 2095.92 655.748 2087.68 631.345 2073.87 631.345 2044.37L631.345 1998.96 683.2 1976.12 735.06 1998.96 735.06 2044.37C735.06 2073.87 710.638 2087.68 696.047 2095.93 691.788 2098.33 688.099 2100.41 686.412 2102.08ZM638.797 2003.84 638.797 2044.37C638.797 2069.5 659.989 2081.49 674.009 2089.41 677.721 2091.51 680.839 2093.28 683.177 2095.02 685.514 2093.27 688.637 2091.5 692.344 2089.41 706.369 2081.46 727.557 2069.5 727.557 2044.37L727.557 2003.84 683.172 1984.3Z" fill="#FF8142"/><path d="M708.123 2015.69 658.1 2015.69C656.035 2015.69 654.36 2017.37 654.36 2019.43 654.36 2021.5 656.035 2023.17 658.1 2023.17L679.371 2023.17 679.371 2064.83C679.371 2066.89 681.046 2068.57 683.111 2068.57 685.177 2068.57 686.851 2066.89 686.851 2064.83L686.851 2023.17 708.127 2023.17C710.193 2023.17 711.867 2021.5 711.867 2019.43 711.867 2017.37 710.193 2015.69 708.127 2015.69Z" fill="#FF8142"/></g></g></g><text fill="#181818" font-family="Metropolis,Metropolis_MSFontService,sans-serif" font-weight="400" font-size="46" transform="matrix(1 0 0 1 595.741 2152)">NSX</text><text fill="#181818" font-family="Metropolis,Metropolis_MSFontService,sans-serif" font-weight="400" font-size="41" transform="matrix(1 0 0 1 311.091 2166)">vCente</text><text fill="#181818" font-family="Metropolis,Metropolis_MSFontService,sans-serif" font-weight="400" font-size="41" transform="matrix(1 0 0 1 452.028 2166)">r</text><text fill="#181818" font-family="Metropolis,Metropolis_MSFontService,sans-serif" font-weight="400" font-size="41" transform="matrix(1 0 0 1 324.566 2216)">Server</text><g><g><g><path d="M332.923 1961.29 332.923 2034.52C332.927 2038.03 335.776 2040.88 339.292 2040.89L348.504 2040.89 348.504 2047.49 339.292 2047.49C332.133 2047.48 326.331 2041.68 326.323 2034.52L326.323 1961.29C326.331 1954.13 332.133 1948.33 339.292 1948.32L410.744 1948.32C417.903 1948.33 423.704 1954.13 423.713 1961.29L423.713 1968.73 417.113 1968.73 417.113 1961.29C417.109 1957.77 414.259 1954.92 410.744 1954.92L339.292 1954.92C335.776 1954.92 332.927 1957.77 332.923 1961.29ZM367.864 2067.86C364.348 2067.86 361.498 2065.01 361.495 2061.5L361.495 1988.27C361.499 1984.75 364.348 1981.9 367.864 1981.9L439.313 1981.9C442.83 1981.9 445.679 1984.75 445.682 1988.27L445.682 2000.82C447.763 1999.72 449.984 1998.92 452.282 1998.43L452.282 1988.27C452.275 1981.11 446.473 1975.3 439.313 1975.3L367.864 1975.3C360.705 1975.3 354.902 1981.11 354.895 1988.27L354.895 2061.5C354.903 2068.65 360.705 2074.46 367.864 2074.46L376.191 2074.46C376.689 2072.16 377.499 2069.94 378.6 2067.86Z" fill="#0091DA"/><path d="M376.637 2087.4 335.082 2087.4C323.224 2087.39 313.614 2077.78 313.6 2065.92L313.6 1957.08C313.614 1945.22 323.224 1935.61 335.082 1935.6L378.215 1935.6 384.815 1929 335.082 1929C319.58 1929.02 307.018 1941.58 307 1957.08L307 2065.92C307.018 2081.42 319.58 2093.98 335.082 2094L379.574 2094 379.609 2093.96C378.316 2091.93 377.316 2089.72 376.637 2087.4Z" fill="#00C1D5"/><path d="M465.4 1957.08 465.4 1998.96C467.735 1999.67 469.957 2000.71 472 2002.04L472 1957.08C471.982 1941.58 459.42 1929.02 443.918 1929L399.418 1929 392.818 1935.6 443.918 1935.6C455.776 1935.61 465.386 1945.22 465.4 1957.08Z" fill="#78BE20"/><path d="M457.799 2093.74C450.236 2093.74 444.105 2087.6 444.105 2080.04 444.105 2077.55 444.783 2075.11 446.065 2072.98L436.795 2063.71C432.445 2066.33 427.01 2066.33 422.66 2063.71L413.39 2072.98C417.298 2079.46 415.214 2087.88 408.734 2091.79 402.255 2095.7 393.834 2093.61 389.926 2087.14 386.018 2080.66 388.103 2072.24 394.582 2068.33 398.93 2065.71 404.371 2065.7 408.721 2068.32L417.995 2059.04C415.389 2054.69 415.389 2049.26 417.995 2044.91L408.722 2035.64C402.245 2039.54 393.828 2037.46 389.924 2030.98 386.019 2024.5 388.104 2016.09 394.582 2012.18 401.06 2008.28 409.477 2010.36 413.381 2016.84 416.001 2021.19 416.003 2026.62 413.387 2030.97L422.665 2040.25C427.014 2037.64 432.445 2037.64 436.794 2040.25L446.068 2030.97C442.831 2025.58 443.676 2018.68 448.117 2014.22L448.117 2014.22C453.468 2008.88 462.134 2008.89 467.475 2014.24 472.815 2019.59 472.807 2028.26 467.457 2033.6 463.011 2038.04 456.115 2038.88 450.731 2035.64L441.462 2044.91C444.074 2049.26 444.074 2054.7 441.462 2059.05L450.731 2068.32C457.208 2064.41 465.625 2066.49 469.532 2072.97 473.44 2079.45 471.357 2087.86 464.881 2091.77 462.744 2093.06 460.295 2093.74 457.799 2093.74ZM457.799 2072.96C453.881 2072.96 450.704 2076.13 450.703 2080.05 450.703 2083.97 453.879 2087.15 457.797 2087.15 461.716 2087.15 464.893 2083.97 464.893 2080.05 464.893 2078.17 464.146 2076.37 462.815 2075.04 461.487 2073.7 459.681 2072.95 457.799 2072.96ZM401.656 2072.96C397.742 2072.97 394.572 2076.14 394.575 2080.06 394.579 2083.97 397.754 2087.14 401.668 2087.14 405.582 2087.13 408.752 2083.96 408.749 2080.04 408.747 2078.17 408 2076.36 406.672 2075.04L406.672 2075.04C405.342 2073.71 403.537 2072.96 401.656 2072.96ZM424.712 2046.96C421.94 2049.73 421.939 2054.23 424.709 2057 427.479 2059.77 431.971 2059.77 434.743 2057 437.515 2054.23 437.516 2049.74 434.745 2046.97 434.745 2046.97 434.744 2046.97 434.743 2046.96 431.971 2044.2 427.484 2044.2 424.712 2046.96ZM457.799 2016.82C455.917 2016.81 454.111 2017.56 452.784 2018.89L452.784 2018.89C450.015 2021.66 450.015 2026.15 452.785 2028.92 455.555 2031.69 460.046 2031.69 462.815 2028.92 465.585 2026.15 465.584 2021.66 462.814 2018.89 461.484 2017.56 459.68 2016.81 457.799 2016.81ZM401.656 2016.82C397.74 2016.82 394.568 2020 394.571 2023.91 394.573 2027.83 397.75 2031 401.665 2031 405.58 2031 408.753 2027.82 408.75 2023.9 408.749 2022.02 408.001 2020.22 406.671 2018.89 405.342 2017.56 403.537 2016.81 401.656 2016.82Z" fill="#1D428A"/></g></g></g><text fill="#181818" font-family="Metropolis,Metropolis_MSFontService,sans-serif" font-weight="400" font-size="46" transform="matrix(1 0 0 1 793.698 2147)">Storage</text><text fill="#181818" font-family="Metropolis,Metropolis_MSFontService,sans-serif" font-weight="400" font-size="46" transform="matrix(1 0 0 1 802.567 2202)">(vSAN)</text><g><g><g><path d="M141.983 147.837 141.983 61.1302C141.983 61.1302 142 60.9533 142 60.8649 142 60.8295 141.983 60.7941 141.983 60.741L141.983 19.1916C141.983 19.1916 142 19.0324 142 18.9617 142 13.213 134.677 8.4903 120.226 4.97037 107.102 1.76881 89.6965-2.35654e-15 71.2124-2.35654e-15 52.7283-2.35654e-15 35.3232 1.76881 22.2163 4.97037 7.76509 8.4903 0.442203 13.213 0.442203 18.9617 0.442203 24.7103 7.76509 29.4331 22.2163 32.953 35.3409 36.1545 52.746 37.9234 71.2301 37.9234 89.7142 37.9234 107.119 36.1545 120.244 32.953 128.186 31.0073 133.97 28.7078 137.578 26.0723L137.578 61.0594C137.065 67.1088 111.771 75.4045 70.8056 75.4045 29.8399 75.4045 4.42203 66.9496 4.42203 60.8825L4.42203 38.3125C4.42203 37.092 3.4315 36.1015 2.21102 36.1015 0.990535 36.1015 0 37.092 0 38.3125L0 60.8825C0 66.6312 7.32289 71.3539 21.7741 74.8739 34.8987 78.0754 52.3038 79.8442 70.7879 79.8442 98.1161 79.8442 126.789 75.6698 137.561 67.834L137.561 104.13C137.561 104.13 137.543 104.201 137.543 104.254 137.543 110.321 112.143 118.794 70.7879 118.794 29.4331 118.794 4.42203 110.303 4.42203 104.236L4.42203 82.1437C4.42203 80.9232 3.4315 79.9327 2.21102 79.9327 0.990535 79.9327 0 80.9232 0 82.1437L0 104.236C0 109.985 7.32289 114.708 21.7741 118.227 34.8987 121.429 52.3038 123.198 70.7879 123.198 98.1338 123.198 126.842 119.023 137.561 111.152L137.561 147.855C137.525 153.922 112.125 162.377 70.7879 162.377 29.4507 162.377 4.42203 153.922 4.42203 147.837L4.42203 125.745C4.42203 124.524 3.4315 123.534 2.21102 123.534 0.990535 123.534 0 124.524 0 125.745L0 147.837C0 153.586 7.32289 158.309 21.7741 161.829 34.8987 165.03 52.3038 166.799 70.7879 166.799 104.961 166.799 141.24 160.29 141.947 148.209L141.983 148.209 141.983 147.855C141.983 147.855 141.983 147.855 141.983 147.837 141.983 147.837 141.983 147.837 141.983 147.837ZM71.2124 33.5013C30.1052 33.5013 4.86424 25.0287 4.86424 18.9617 4.86424 12.8946 30.1052 4.42203 71.2124 4.42203 112.32 4.42203 137.313 12.8062 137.561 18.8732L137.561 18.8732 137.561 19.1032C137.154 25.1702 112.001 33.5013 71.2301 33.5013Z" fill="#1D428A" transform="matrix(1 0 0 1.0009 809 1927.03)"/></g></g></g><text fill="#0070C0" font-family="JetBrainsMono Nerd Font,JetBrainsMono Nerd Font_MSFontService,sans-serif" font-weight="500" font-size="37" transform="matrix(1 0 0 1 340.08 1877)">"networks": "</text><text fill="#0070C0" font-family="JetBrainsMono Nerd Font,JetBrainsMono Nerd Font_MSFontService,sans-serif" font-weight="500" font-size="37" transform="matrix(1 0 0 1 623.101 1877)">10.200.0.0/16"</text><path d="M693.469 1740.34 693.469 1670.16 661.974 1670.16 654.855 1670.16 642.991 1670.16 642.991 1740.34 589.493 1740.34 589.493 1617.66 654.855 1617.66 654.855 1666.9 661.974 1666.9 661.974 1612 582.374 1612 582.374 1740.34 569 1740.34 569 1746 709 1746 709 1740.34 693.469 1740.34ZM650.109 1675.83 686.35 1675.83 686.35 1740.34 650.109 1740.34 650.109 1675.83ZM648.384 1638.08 641.265 1638.08 641.265 1625.73 648.384 1625.73 648.384 1638.08ZM641.265 1648.03 648.384 1648.03 648.384 1660.21 641.265 1660.21 641.265 1648.03ZM605.456 1638.08 598.337 1638.08 598.337 1625.73 605.456 1625.73 605.456 1638.08ZM605.456 1660.21 598.337 1660.21 598.337 1648.03 605.456 1648.03 605.456 1660.21ZM605.456 1684.58 598.337 1684.58 598.337 1670.16 605.456 1670.16 605.456 1684.58ZM605.456 1706.88 598.337 1706.88 598.337 1692.64 605.456 1692.64 605.456 1706.88ZM598.337 1714.94 605.456 1714.94 605.456 1729.01 598.337 1729.01 598.337 1714.94ZM626.165 1638.08 619.046 1638.08 619.046 1625.73 626.165 1625.73 626.165 1638.08ZM626.165 1660.21 619.046 1660.21 619.046 1648.03 626.165 1648.03 626.165 1660.21ZM626.165 1684.58 619.046 1684.58 619.046 1670.16 626.165 1670.16 626.165 1684.58ZM626.165 1706.88 619.046 1706.88 619.046 1692.64 626.165 1692.64 626.165 1706.88ZM619.046 1714.94 626.165 1714.94 626.165 1729.01 619.046 1729.01 619.046 1714.94ZM655.934 1680.8 662.837 1680.8 662.837 1694.87 655.934 1694.87 655.934 1680.8ZM673.623 1680.8 680.526 1680.8 680.526 1694.87 673.623 1694.87 673.623 1680.8ZM655.934 1701.22 662.837 1701.22 662.837 1715.29 655.934 1715.29 655.934 1701.22ZM673.623 1701.22 680.526 1701.22 680.526 1715.29 673.623 1715.29 673.623 1701.22ZM655.934 1723.35 662.837 1723.35 662.837 1735.36 655.934 1735.36 655.934 1723.35ZM673.623 1723.35 680.526 1723.35 680.526 1735.36 673.623 1735.36 673.623 1723.35Z" fill="#156082" fill-rule="evenodd"/><text font-family="Arial,Arial_MSFontService,sans-serif" font-weight="400" font-size="41" transform="matrix(1 0 0 1 533.001 1804)">Endpoint A</text><path d="M4.58333-4.76019e-06 4.58367 324.567-4.583 324.567-4.58333 4.76019e-06ZM13.7503 319.984 0.000360892 347.484-13.7497 319.984Z" fill="#717074" transform="matrix(1 0 0 -1 2212.5 746.984)"/><text fill="#E97132" font-family="Metropolis,Metropolis_MSFontService,sans-serif" font-weight="700" font-size="41" transform="matrix(1 0 0 1 2251.23 531)">SNAT</text><text fill="#E97132" font-family="Metropolis,Metropolis_MSFontService,sans-serif" font-weight="400" font-size="41" transform="matrix(1 0 0 1 2378.99 531)">/ </text><text fill="#E97132" font-family="Metropolis,Metropolis_MSFontService,sans-serif" font-weight="700" font-size="41" transform="matrix(1 0 0 1 2408.21 531)">Masquerade</text><text fill="#E97132" font-family="Metropolis,Metropolis_MSFontService,sans-serif" font-weight="400" font-size="41" transform="matrix(1 0 0 1 2316.54 581)">to Internet for</text><text fill="#E97132" font-family="Metropolis,Metropolis_MSFontService,sans-serif" font-weight="400" font-size="41" transform="matrix(1 0 0 1 2280.72 630)">Download Engine</text><rect x="1760" y="1576" width="819" height="687" fill="#D9F2D0"/><g><g><g><path d="M83.7807 156.528C62.7329 159.056 41.748 151.349 27.3394 135.799 38.2938 139.469 49.7696 141.343 61.322 141.349 65.472 141.346 69.6182 141.098 73.7388 140.605 71.8903 136.24 70.5962 131.66 69.8866 126.973 56.4628 118.188 45.389 106.256 37.6291 92.2144 40.4215 89.0943 40.55 84.4127 37.9329 81.144 45.5958 69.284 55.8499 59.3178 67.9231 51.9953 71.0184 55.5858 76.4386 55.9869 80.0285 52.8911 80.1248 52.8083 80.2193 52.7232 80.3118 52.6358 82.2038 53.9168 84.0551 55.2618 85.8657 56.6703L92.2331 53.8653C89.2808 51.4231 86.2023 49.1389 83.0093 47.0212 83.0093 46.8014 83.042 46.5817 83.042 46.3573 83.042 45.797 82.9873 45.238 82.8784 44.6883 93.3841 40.6856 104.534 38.6385 115.776 38.6482 116.417 38.6482 117.057 38.6763 117.702 38.6856 118.745 39.5271 119.755 40.406 120.746 41.3083L128.165 38.0358C114.307 24.2213 95.5364 16.4659 75.9688 16.47 35.1607 16.47 1.95882 49.6625 1.95882 90.4753 1.95882 131.288 35.1513 164.481 75.9688 164.481 80.7653 164.476 85.5497 164.006 90.2555 163.078 87.9639 161.031 85.8012 158.843 83.7807 156.528ZM75.9688 23.95C87.5506 23.9473 98.9314 26.9723 108.984 32.725 98.8725 33.414 88.9293 35.666 79.5077 39.4009 76.5101 37.2064 72.4401 37.1931 69.4284 39.3682 61.7974 35.753 53.7597 33.069 45.4878 31.3739 54.9046 26.4875 65.3598 23.9411 75.9688 23.95ZM37.4327 36.2967C47.3227 37.5972 56.9588 40.3903 66.011 44.5808 65.9119 45.0737 65.8558 45.5742 65.8427 46.0768 52.4348 53.9813 41.0665 64.9189 32.6502 78.0117 32.187 77.9304 31.7179 77.8883 31.2477 77.8855L31.2009 77.8855C27.6345 68.0432 25.7047 57.6834 25.4881 47.2175 29.0164 43.1105 33.0268 39.4438 37.4327 36.2967ZM9.43883 90.4753C9.42396 77.9075 12.9917 65.5954 19.7238 54.9827 20.547 63.5725 22.4539 72.0235 25.3993 80.1342 21.882 83.3122 21.6071 88.7399 24.7852 92.2574 24.8334 92.3107 24.8823 92.3635 24.9318 92.4154 20.8858 101.839 18.3444 111.839 17.4004 122.05 12.1553 112.354 9.41849 101.499 9.43883 90.4753ZM23.2394 127.702C23.6607 116.476 26.1324 105.422 30.5324 95.0848 30.7568 95.0848 30.9999 95.1176 31.2103 95.1176 31.5321 95.1157 31.8535 95.097 32.1734 95.0614 40.9796 111.057 53.8186 124.47 69.4144 133.967L70.686 134.719C54.5362 136.231 38.2601 133.824 23.2394 127.702Z" fill="#0065AB" transform="matrix(1.00535 0 0 1 2080 1927)"/><path d="M135.318 176.14 131.064 176.14 129.965 175.074C128.268 173.41 124.589 171.334 120.33 168.922 105.748 160.675 81.345 146.865 81.345 117.366L81.345 71.9623 133.2 49.1202 185.06 71.9623 185.06 117.371C185.06 146.87 160.638 160.68 146.047 168.926 141.788 171.334 138.1 173.41 136.412 175.079ZM88.797 76.8383 88.797 117.366C88.797 142.503 109.989 154.485 124.009 162.41 127.721 164.509 130.839 166.276 133.177 168.02 135.514 166.271 138.637 164.504 142.344 162.41 156.369 154.462 177.556 142.503 177.556 117.366L177.556 76.8383 133.172 57.2968Z" fill="#FF8142" transform="matrix(1.00535 0 0 1 2080 1927)"/><path d="M158.123 88.6941 108.1 88.6941C106.035 88.6941 104.36 90.3687 104.36 92.4341 104.36 94.4995 106.035 96.1741 108.1 96.1741L129.371 96.1741 129.371 137.828C129.371 139.894 131.046 141.568 133.111 141.568 135.177 141.568 136.851 139.894 136.851 137.828L136.851 96.1741 158.127 96.1741C160.193 96.1741 161.867 94.4995 161.867 92.4341 161.867 90.3687 160.193 88.6941 158.127 88.6941Z" fill="#FF8142" transform="matrix(1.00535 0 0 1 2080 1927)"/></g></g></g><text fill="#181818" font-family="Metropolis,Metropolis_MSFontService,sans-serif" font-weight="400" font-size="46" transform="matrix(1 0 0 1 2126.34 2152)">NSX</text><text fill="#181818" font-family="Metropolis,Metropolis_MSFontService,sans-serif" font-weight="400" font-size="41" transform="matrix(1 0 0 1 1841.69 2166)">vCente</text><text fill="#181818" font-family="Metropolis,Metropolis_MSFontService,sans-serif" font-weight="400" font-size="41" transform="matrix(1 0 0 1 1982.63 2166)">r</text><text fill="#181818" font-family="Metropolis,Metropolis_MSFontService,sans-serif" font-weight="400" font-size="41" transform="matrix(1 0 0 1 1855.17 2216)">Server</text><g><g><g><path d="M1863.92 1961.29 1863.92 2034.52C1863.93 2038.03 1866.78 2040.88 1870.29 2040.89L1879.5 2040.89 1879.5 2047.49 1870.29 2047.49C1863.13 2047.48 1857.33 2041.68 1857.32 2034.52L1857.32 1961.29C1857.33 1954.13 1863.13 1948.33 1870.29 1948.32L1941.74 1948.32C1948.9 1948.33 1954.7 1954.13 1954.71 1961.29L1954.71 1968.73 1948.11 1968.73 1948.11 1961.29C1948.11 1957.77 1945.26 1954.92 1941.74 1954.92L1870.29 1954.92C1866.78 1954.92 1863.93 1957.77 1863.92 1961.29ZM1898.86 2067.86C1895.35 2067.86 1892.5 2065.01 1892.49 2061.5L1892.49 1988.27C1892.5 1984.75 1895.35 1981.9 1898.86 1981.9L1970.31 1981.9C1973.83 1981.9 1976.68 1984.75 1976.68 1988.27L1976.68 2000.82C1978.76 1999.72 1980.98 1998.92 1983.28 1998.43L1983.28 1988.27C1983.27 1981.11 1977.47 1975.3 1970.31 1975.3L1898.86 1975.3C1891.7 1975.3 1885.9 1981.11 1885.89 1988.27L1885.89 2061.5C1885.9 2068.65 1891.7 2074.46 1898.86 2074.46L1907.19 2074.46C1907.69 2072.16 1908.5 2069.94 1909.6 2067.86Z" fill="#0091DA"/><path d="M1907.64 2087.4 1866.08 2087.4C1854.22 2087.39 1844.61 2077.78 1844.6 2065.92L1844.6 1957.08C1844.61 1945.22 1854.22 1935.61 1866.08 1935.6L1909.22 1935.6 1915.82 1929 1866.08 1929C1850.58 1929.02 1838.02 1941.58 1838 1957.08L1838 2065.92C1838.02 2081.42 1850.58 2093.98 1866.08 2094L1910.57 2094 1910.61 2093.96C1909.32 2091.93 1908.32 2089.72 1907.64 2087.4Z" fill="#00C1D5"/><path d="M1996.4 1957.08 1996.4 1998.96C1998.74 1999.67 2000.96 2000.71 2003 2002.04L2003 1957.08C2002.98 1941.58 1990.42 1929.02 1974.92 1929L1930.42 1929 1923.82 1935.6 1974.92 1935.6C1986.78 1935.61 1996.39 1945.22 1996.4 1957.08Z" fill="#78BE20"/><path d="M1988.8 2093.74C1981.24 2093.74 1975.1 2087.6 1975.11 2080.04 1975.11 2077.55 1975.78 2075.11 1977.06 2072.98L1967.8 2063.71C1963.45 2066.33 1958.01 2066.33 1953.66 2063.71L1944.39 2072.98C1948.3 2079.46 1946.21 2087.88 1939.73 2091.79 1933.25 2095.7 1924.83 2093.61 1920.93 2087.14 1917.02 2080.66 1919.1 2072.24 1925.58 2068.33 1929.93 2065.71 1935.37 2065.7 1939.72 2068.32L1949 2059.04C1946.39 2054.69 1946.39 2049.26 1949 2044.91L1939.72 2035.64C1933.24 2039.54 1924.83 2037.46 1920.92 2030.98 1917.02 2024.5 1919.1 2016.09 1925.58 2012.18 1932.06 2008.28 1940.48 2010.36 1944.38 2016.84 1947 2021.19 1947 2026.62 1944.39 2030.97L1953.67 2040.25C1958.01 2037.64 1963.44 2037.64 1967.79 2040.25L1977.07 2030.97C1973.83 2025.58 1974.68 2018.68 1979.12 2014.22L1979.12 2014.22C1984.47 2008.88 1993.13 2008.89 1998.47 2014.24 2003.82 2019.59 2003.81 2028.26 1998.46 2033.6 1994.01 2038.04 1987.11 2038.88 1981.73 2035.64L1972.46 2044.91C1975.07 2049.26 1975.07 2054.7 1972.46 2059.05L1981.73 2068.32C1988.21 2064.41 1996.63 2066.49 2000.53 2072.97 2004.44 2079.45 2002.36 2087.86 1995.88 2091.77 1993.74 2093.06 1991.29 2093.74 1988.8 2093.74ZM1988.8 2072.96C1984.88 2072.96 1981.7 2076.13 1981.7 2080.05 1981.7 2083.97 1984.88 2087.15 1988.8 2087.15 1992.72 2087.15 1995.89 2083.97 1995.89 2080.05 1995.89 2078.17 1995.15 2076.37 1993.81 2075.04 1992.49 2073.7 1990.68 2072.95 1988.8 2072.96ZM1932.66 2072.96C1928.74 2072.97 1925.57 2076.14 1925.58 2080.06 1925.58 2083.97 1928.75 2087.14 1932.67 2087.14 1936.58 2087.13 1939.75 2083.96 1939.75 2080.04 1939.75 2078.17 1939 2076.36 1937.67 2075.04L1937.67 2075.04C1936.34 2073.71 1934.54 2072.96 1932.66 2072.96ZM1955.71 2046.96C1952.94 2049.73 1952.94 2054.23 1955.71 2057 1958.48 2059.77 1962.97 2059.77 1965.74 2057 1968.51 2054.23 1968.52 2049.74 1965.75 2046.97 1965.74 2046.97 1965.74 2046.97 1965.74 2046.96 1962.97 2044.2 1958.48 2044.2 1955.71 2046.96ZM1988.8 2016.82C1986.92 2016.81 1985.11 2017.56 1983.78 2018.89L1983.78 2018.89C1981.01 2021.66 1981.02 2026.15 1983.78 2028.92 1986.55 2031.69 1991.05 2031.69 1993.82 2028.92 1996.58 2026.15 1996.58 2021.66 1993.81 2018.89 1992.48 2017.56 1990.68 2016.81 1988.8 2016.81ZM1932.66 2016.82C1928.74 2016.82 1925.57 2020 1925.57 2023.91 1925.57 2027.83 1928.75 2031 1932.67 2031 1936.58 2031 1939.75 2027.82 1939.75 2023.9 1939.75 2022.02 1939 2020.22 1937.67 2018.89 1936.34 2017.56 1934.54 2016.81 1932.66 2016.82Z" fill="#1D428A"/></g></g></g><text fill="#181818" font-family="Metropolis,Metropolis_MSFontService,sans-serif" font-weight="400" font-size="46" transform="matrix(1 0 0 1 2324.3 2147)">Storage</text><text fill="#181818" font-family="Metropolis,Metropolis_MSFontService,sans-serif" font-weight="400" font-size="46" transform="matrix(1 0 0 1 2333.17 2202)">(vSAN)</text><g><g><g><path d="M141.982 147.837 141.982 61.13C141.982 61.13 142 60.9531 142 60.8647 142 60.8293 141.982 60.794 141.982 60.7409L141.982 19.1916C141.982 19.1916 142 19.0324 142 18.9616 142 13.213 134.677 8.49028 120.226 4.97035 107.101 1.76881 89.6963-2.35653e-15 71.2122-2.35653e-15 52.7282-2.35653e-15 35.3231 1.76881 22.2162 4.97035 7.76507 8.49028 0.442202 13.213 0.442202 18.9616 0.442202 24.7103 7.76507 29.433 22.2162 32.9529 35.3408 36.1544 52.7459 37.9233 71.2299 37.9233 89.714 37.9233 107.119 36.1544 120.244 32.9529 128.186 31.0072 133.97 28.7078 137.578 26.0722L137.578 61.0593C137.065 67.1086 111.771 75.4043 70.8054 75.4043 29.8398 75.4043 4.42202 66.9494 4.42202 60.8824L4.42202 38.3124C4.42202 37.0919 3.43149 36.1014 2.21101 36.1014 0.990533 36.1014 0 37.0919 0 38.3124L0 60.8824C0 66.631 7.32287 71.3537 21.774 74.8737 34.8986 78.0752 52.3037 79.844 70.7877 79.844 98.1158 79.844 126.788 75.6696 137.56 67.8338L137.56 104.13C137.56 104.13 137.543 104.201 137.543 104.254 137.543 110.321 112.142 118.793 70.7877 118.793 29.433 118.793 4.42202 110.303 4.42202 104.236L4.42202 82.1435C4.42202 80.923 3.43149 79.9325 2.21101 79.9325 0.990533 79.9325 0 80.923 0 82.1435L0 104.236C0 109.985 7.32287 114.707 21.774 118.227 34.8986 121.429 52.3037 123.198 70.7877 123.198 98.1335 123.198 126.841 119.023 137.56 111.152L137.56 147.855C137.525 153.922 112.125 162.377 70.7877 162.377 29.4507 162.377 4.42202 153.922 4.42202 147.837L4.42202 125.745C4.42202 124.524 3.43149 123.534 2.21101 123.534 0.990533 123.534 0 124.524 0 125.745L0 147.837C0 153.586 7.32287 158.308 21.774 161.828 34.8986 165.03 52.3037 166.799 70.7877 166.799 104.961 166.799 141.239 160.289 141.947 148.208L141.982 148.208 141.982 147.855C141.982 147.855 141.982 147.855 141.982 147.837 141.982 147.837 141.982 147.837 141.982 147.837ZM71.2122 33.5012C30.1051 33.5012 4.86422 25.0286 4.86422 18.9616 4.86422 12.8946 30.1051 4.42202 71.2122 4.42202 112.319 4.42202 137.313 12.8062 137.56 18.8732L137.56 18.8732 137.56 19.1031C137.153 25.1701 112.001 33.5012 71.2299 33.5012Z" fill="#1D428A" transform="matrix(1 0 0 1.0009 2340 1927.03)"/></g></g></g><text fill="#0070C0" font-family="JetBrainsMono Nerd Font,JetBrainsMono Nerd Font_MSFontService,sans-serif" font-weight="500" font-size="37" transform="matrix(1 0 0 1 1870.68 1877)">"networks": "</text><text fill="#0070C0" font-family="JetBrainsMono Nerd Font,JetBrainsMono Nerd Font_MSFontService,sans-serif" font-weight="500" font-size="37" transform="matrix(1 0 0 1 2153.7 1877)">10.210.0.0/16"</text><path d="M2224.47 1740.34 2224.47 1670.16 2192.97 1670.16 2185.85 1670.16 2173.99 1670.16 2173.99 1740.34 2120.49 1740.34 2120.49 1617.66 2185.85 1617.66 2185.85 1666.9 2192.97 1666.9 2192.97 1612 2113.37 1612 2113.37 1740.34 2100 1740.34 2100 1746 2240 1746 2240 1740.34 2224.47 1740.34ZM2181.11 1675.83 2217.35 1675.83 2217.35 1740.34 2181.11 1740.34 2181.11 1675.83ZM2179.38 1638.08 2172.26 1638.08 2172.26 1625.73 2179.38 1625.73 2179.38 1638.08ZM2172.26 1648.03 2179.38 1648.03 2179.38 1660.21 2172.26 1660.21 2172.26 1648.03ZM2136.46 1638.08 2129.34 1638.08 2129.34 1625.73 2136.46 1625.73 2136.46 1638.08ZM2136.46 1660.21 2129.34 1660.21 2129.34 1648.03 2136.46 1648.03 2136.46 1660.21ZM2136.46 1684.58 2129.34 1684.58 2129.34 1670.16 2136.46 1670.16 2136.46 1684.58ZM2136.46 1706.88 2129.34 1706.88 2129.34 1692.64 2136.46 1692.64 2136.46 1706.88ZM2129.34 1714.94 2136.46 1714.94 2136.46 1729.01 2129.34 1729.01 2129.34 1714.94ZM2157.16 1638.08 2150.05 1638.08 2150.05 1625.73 2157.16 1625.73 2157.16 1638.08ZM2157.16 1660.21 2150.05 1660.21 2150.05 1648.03 2157.16 1648.03 2157.16 1660.21ZM2157.16 1684.58 2150.05 1684.58 2150.05 1670.16 2157.16 1670.16 2157.16 1684.58ZM2157.16 1706.88 2150.05 1706.88 2150.05 1692.64 2157.16 1692.64 2157.16 1706.88ZM2150.05 1714.94 2157.16 1714.94 2157.16 1729.01 2150.05 1729.01 2150.05 1714.94ZM2186.93 1680.8 2193.84 1680.8 2193.84 1694.87 2186.93 1694.87 2186.93 1680.8ZM2204.62 1680.8 2211.53 1680.8 2211.53 1694.87 2204.62 1694.87 2204.62 1680.8ZM2186.93 1701.22 2193.84 1701.22 2193.84 1715.29 2186.93 1715.29 2186.93 1701.22ZM2204.62 1701.22 2211.53 1701.22 2211.53 1715.29 2204.62 1715.29 2204.62 1701.22ZM2186.93 1723.35 2193.84 1723.35 2193.84 1735.36 2186.93 1735.36 2186.93 1723.35ZM2204.62 1723.35 2211.53 1723.35 2211.53 1735.36 2204.62 1735.36 2204.62 1723.35Z" fill="#156082" fill-rule="evenodd"/><text font-family="Arial,Arial_MSFontService,sans-serif" font-weight="400" font-size="41" transform="matrix(1 0 0 1 2063.6 1804)">Endpoint B</text><rect x="3291" y="1576" width="819" height="687" fill="#FBE3D6"/><g><g><g><path d="M83.7807 156.528C62.7329 159.056 41.748 151.349 27.3394 135.799 38.2938 139.469 49.7696 141.343 61.322 141.349 65.472 141.346 69.6182 141.098 73.7388 140.605 71.8903 136.24 70.5962 131.66 69.8866 126.973 56.4628 118.188 45.389 106.256 37.6291 92.2144 40.4215 89.0943 40.55 84.4127 37.9329 81.144 45.5958 69.284 55.8499 59.3178 67.9231 51.9953 71.0184 55.5858 76.4386 55.9869 80.0285 52.8911 80.1248 52.8083 80.2193 52.7232 80.3118 52.6358 82.2038 53.9168 84.0551 55.2618 85.8657 56.6703L92.2331 53.8653C89.2808 51.4231 86.2023 49.1389 83.0093 47.0212 83.0093 46.8014 83.042 46.5817 83.042 46.3573 83.042 45.797 82.9873 45.238 82.8784 44.6883 93.3841 40.6856 104.534 38.6385 115.776 38.6482 116.417 38.6482 117.057 38.6763 117.702 38.6856 118.745 39.5271 119.755 40.406 120.746 41.3083L128.165 38.0358C114.307 24.2213 95.5364 16.4659 75.9688 16.47 35.1607 16.47 1.95882 49.6625 1.95882 90.4753 1.95882 131.288 35.1513 164.481 75.9688 164.481 80.7653 164.476 85.5497 164.006 90.2555 163.078 87.9639 161.031 85.8012 158.843 83.7807 156.528ZM75.9688 23.95C87.5506 23.9473 98.9314 26.9723 108.984 32.725 98.8725 33.414 88.9293 35.666 79.5077 39.4009 76.5101 37.2064 72.4401 37.1931 69.4284 39.3682 61.7974 35.753 53.7597 33.069 45.4878 31.3739 54.9046 26.4875 65.3598 23.9411 75.9688 23.95ZM37.4327 36.2967C47.3227 37.5972 56.9588 40.3903 66.011 44.5808 65.9119 45.0737 65.8558 45.5742 65.8427 46.0768 52.4348 53.9813 41.0665 64.9189 32.6502 78.0117 32.187 77.9304 31.7179 77.8883 31.2477 77.8855L31.2009 77.8855C27.6345 68.0432 25.7047 57.6834 25.4881 47.2175 29.0164 43.1105 33.0268 39.4438 37.4327 36.2967ZM9.43883 90.4753C9.42396 77.9075 12.9917 65.5954 19.7238 54.9827 20.547 63.5725 22.4539 72.0235 25.3993 80.1342 21.882 83.3122 21.6071 88.7399 24.7852 92.2574 24.8334 92.3107 24.8823 92.3635 24.9318 92.4154 20.8858 101.839 18.3444 111.839 17.4004 122.05 12.1553 112.354 9.41849 101.499 9.43883 90.4753ZM23.2394 127.702C23.6607 116.476 26.1324 105.422 30.5324 95.0848 30.7568 95.0848 30.9999 95.1176 31.2103 95.1176 31.5321 95.1157 31.8535 95.097 32.1734 95.0614 40.9796 111.057 53.8186 124.47 69.4144 133.967L70.686 134.719C54.5362 136.231 38.2601 133.824 23.2394 127.702Z" fill="#0065AB" transform="matrix(1.00535 0 0 1 3611 1927)"/><path d="M135.318 176.14 131.064 176.14 129.965 175.074C128.268 173.41 124.589 171.334 120.33 168.922 105.748 160.675 81.345 146.865 81.345 117.366L81.345 71.9623 133.2 49.1202 185.06 71.9623 185.06 117.371C185.06 146.87 160.638 160.68 146.047 168.926 141.788 171.334 138.1 173.41 136.412 175.079ZM88.797 76.8383 88.797 117.366C88.797 142.503 109.989 154.485 124.009 162.41 127.721 164.509 130.839 166.276 133.177 168.02 135.514 166.271 138.637 164.504 142.344 162.41 156.369 154.462 177.556 142.503 177.556 117.366L177.556 76.8383 133.172 57.2968Z" fill="#FF8142" transform="matrix(1.00535 0 0 1 3611 1927)"/><path d="M158.123 88.6941 108.1 88.6941C106.035 88.6941 104.36 90.3687 104.36 92.4341 104.36 94.4995 106.035 96.1741 108.1 96.1741L129.371 96.1741 129.371 137.828C129.371 139.894 131.046 141.568 133.111 141.568 135.177 141.568 136.851 139.894 136.851 137.828L136.851 96.1741 158.127 96.1741C160.193 96.1741 161.867 94.4995 161.867 92.4341 161.867 90.3687 160.193 88.6941 158.127 88.6941Z" fill="#FF8142" transform="matrix(1.00535 0 0 1 3611 1927)"/></g></g></g><text fill="#181818" font-family="Metropolis,Metropolis_MSFontService,sans-serif" font-weight="400" font-size="46" transform="matrix(1 0 0 1 3656.95 2152)">NSX</text><text fill="#181818" font-family="Metropolis,Metropolis_MSFontService,sans-serif" font-weight="400" font-size="41" transform="matrix(1 0 0 1 3372.3 2166)">vCente</text><text fill="#181818" font-family="Metropolis,Metropolis_MSFontService,sans-serif" font-weight="400" font-size="41" transform="matrix(1 0 0 1 3513.23 2166)">r</text><text fill="#181818" font-family="Metropolis,Metropolis_MSFontService,sans-serif" font-weight="400" font-size="41" transform="matrix(1 0 0 1 3385.77 2216)">Server</text><g><g><g><path d="M3393.92 1961.29 3393.92 2034.52C3393.93 2038.03 3396.78 2040.88 3400.29 2040.89L3409.5 2040.89 3409.5 2047.49 3400.29 2047.49C3393.13 2047.48 3387.33 2041.68 3387.32 2034.52L3387.32 1961.29C3387.33 1954.13 3393.13 1948.33 3400.29 1948.32L3471.74 1948.32C3478.9 1948.33 3484.7 1954.13 3484.71 1961.29L3484.71 1968.73 3478.11 1968.73 3478.11 1961.29C3478.11 1957.77 3475.26 1954.92 3471.74 1954.92L3400.29 1954.92C3396.78 1954.92 3393.93 1957.77 3393.92 1961.29ZM3428.86 2067.86C3425.35 2067.86 3422.5 2065.01 3422.49 2061.5L3422.49 1988.27C3422.5 1984.75 3425.35 1981.9 3428.86 1981.9L3500.31 1981.9C3503.83 1981.9 3506.68 1984.75 3506.68 1988.27L3506.68 2000.82C3508.76 1999.72 3510.98 1998.92 3513.28 1998.43L3513.28 1988.27C3513.27 1981.11 3507.47 1975.3 3500.31 1975.3L3428.86 1975.3C3421.7 1975.3 3415.9 1981.11 3415.89 1988.27L3415.89 2061.5C3415.9 2068.65 3421.7 2074.46 3428.86 2074.46L3437.19 2074.46C3437.69 2072.16 3438.5 2069.94 3439.6 2067.86Z" fill="#0091DA"/><path d="M3437.64 2087.4 3396.08 2087.4C3384.22 2087.39 3374.61 2077.78 3374.6 2065.92L3374.6 1957.08C3374.61 1945.22 3384.22 1935.61 3396.08 1935.6L3439.22 1935.6 3445.82 1929 3396.08 1929C3380.58 1929.02 3368.02 1941.58 3368 1957.08L3368 2065.92C3368.02 2081.42 3380.58 2093.98 3396.08 2094L3440.57 2094 3440.61 2093.96C3439.32 2091.93 3438.32 2089.72 3437.64 2087.4Z" fill="#00C1D5"/><path d="M3526.4 1957.08 3526.4 1998.96C3528.74 1999.67 3530.96 2000.71 3533 2002.04L3533 1957.08C3532.98 1941.58 3520.42 1929.02 3504.92 1929L3460.42 1929 3453.82 1935.6 3504.92 1935.6C3516.78 1935.61 3526.39 1945.22 3526.4 1957.08Z" fill="#78BE20"/><path d="M3518.8 2093.74C3511.24 2093.74 3505.1 2087.6 3505.11 2080.04 3505.11 2077.55 3505.78 2075.11 3507.06 2072.98L3497.8 2063.71C3493.45 2066.33 3488.01 2066.33 3483.66 2063.71L3474.39 2072.98C3478.3 2079.46 3476.21 2087.88 3469.73 2091.79 3463.25 2095.7 3454.83 2093.61 3450.93 2087.14 3447.02 2080.66 3449.1 2072.24 3455.58 2068.33 3459.93 2065.71 3465.37 2065.7 3469.72 2068.32L3479 2059.04C3476.39 2054.69 3476.39 2049.26 3479 2044.91L3469.72 2035.64C3463.25 2039.54 3454.83 2037.46 3450.92 2030.98 3447.02 2024.5 3449.1 2016.09 3455.58 2012.18 3462.06 2008.28 3470.48 2010.36 3474.38 2016.84 3477 2021.19 3477 2026.62 3474.39 2030.97L3483.67 2040.25C3488.01 2037.64 3493.45 2037.64 3497.79 2040.25L3507.07 2030.97C3503.83 2025.58 3504.68 2018.68 3509.12 2014.22L3509.12 2014.22C3514.47 2008.88 3523.13 2008.89 3528.47 2014.24 3533.82 2019.59 3533.81 2028.26 3528.46 2033.6 3524.01 2038.04 3517.11 2038.88 3511.73 2035.64L3502.46 2044.91C3505.07 2049.26 3505.07 2054.7 3502.46 2059.05L3511.73 2068.32C3518.21 2064.41 3526.63 2066.49 3530.53 2072.97 3534.44 2079.45 3532.36 2087.86 3525.88 2091.77 3523.74 2093.06 3521.29 2093.74 3518.8 2093.74ZM3518.8 2072.96C3514.88 2072.96 3511.7 2076.13 3511.7 2080.05 3511.7 2083.97 3514.88 2087.15 3518.8 2087.15 3522.72 2087.15 3525.89 2083.97 3525.89 2080.05 3525.89 2078.17 3525.15 2076.37 3523.81 2075.04 3522.49 2073.7 3520.68 2072.95 3518.8 2072.96ZM3462.66 2072.96C3458.74 2072.97 3455.57 2076.14 3455.58 2080.06 3455.58 2083.97 3458.75 2087.14 3462.67 2087.14 3466.58 2087.13 3469.75 2083.96 3469.75 2080.04 3469.75 2078.17 3469 2076.36 3467.67 2075.04L3467.67 2075.04C3466.34 2073.71 3464.54 2072.96 3462.66 2072.96ZM3485.71 2046.96C3482.94 2049.73 3482.94 2054.23 3485.71 2057 3488.48 2059.77 3492.97 2059.77 3495.74 2057 3498.51 2054.23 3498.52 2049.74 3495.75 2046.97 3495.74 2046.97 3495.74 2046.97 3495.74 2046.96 3492.97 2044.2 3488.48 2044.2 3485.71 2046.96ZM3518.8 2016.82C3516.92 2016.81 3515.11 2017.56 3513.78 2018.89L3513.78 2018.89C3511.01 2021.66 3511.01 2026.15 3513.78 2028.92 3516.55 2031.69 3521.05 2031.69 3523.82 2028.92 3526.58 2026.15 3526.58 2021.66 3523.81 2018.89 3522.48 2017.56 3520.68 2016.81 3518.8 2016.81ZM3462.66 2016.82C3458.74 2016.82 3455.57 2020 3455.57 2023.91 3455.57 2027.83 3458.75 2031 3462.67 2031 3466.58 2031 3469.75 2027.82 3469.75 2023.9 3469.75 2022.02 3469 2020.22 3467.67 2018.89 3466.34 2017.56 3464.54 2016.81 3462.66 2016.82Z" fill="#1D428A"/></g></g></g><text fill="#181818" font-family="Metropolis,Metropolis_MSFontService,sans-serif" font-weight="400" font-size="46" transform="matrix(1 0 0 1 3854.9 2147)">Storage</text><text fill="#181818" font-family="Metropolis,Metropolis_MSFontService,sans-serif" font-weight="400" font-size="46" transform="matrix(1 0 0 1 3863.77 2202)">(vSAN)</text><g><g><g><path d="M141.982 147.837 141.982 61.13C141.982 61.13 142 60.9531 142 60.8647 142 60.8293 141.982 60.794 141.982 60.7409L141.982 19.1916C141.982 19.1916 142 19.0324 142 18.9616 142 13.213 134.677 8.49028 120.226 4.97035 107.101 1.76881 89.6963-2.35653e-15 71.2122-2.35653e-15 52.7282-2.35653e-15 35.3231 1.76881 22.2162 4.97035 7.76507 8.49028 0.442202 13.213 0.442202 18.9616 0.442202 24.7103 7.76507 29.433 22.2162 32.9529 35.3408 36.1544 52.7459 37.9233 71.2299 37.9233 89.714 37.9233 107.119 36.1544 120.244 32.9529 128.186 31.0072 133.97 28.7078 137.578 26.0722L137.578 61.0593C137.065 67.1086 111.771 75.4043 70.8054 75.4043 29.8398 75.4043 4.42202 66.9494 4.42202 60.8824L4.42202 38.3124C4.42202 37.0919 3.43149 36.1014 2.21101 36.1014 0.990533 36.1014 0 37.0919 0 38.3124L0 60.8824C0 66.631 7.32287 71.3537 21.774 74.8737 34.8986 78.0752 52.3037 79.844 70.7877 79.844 98.1158 79.844 126.788 75.6696 137.56 67.8338L137.56 104.13C137.56 104.13 137.543 104.201 137.543 104.254 137.543 110.321 112.142 118.793 70.7877 118.793 29.433 118.793 4.42202 110.303 4.42202 104.236L4.42202 82.1435C4.42202 80.923 3.43149 79.9325 2.21101 79.9325 0.990533 79.9325 0 80.923 0 82.1435L0 104.236C0 109.985 7.32287 114.707 21.774 118.227 34.8986 121.429 52.3037 123.198 70.7877 123.198 98.1335 123.198 126.841 119.023 137.56 111.152L137.56 147.855C137.525 153.922 112.125 162.377 70.7877 162.377 29.4507 162.377 4.42202 153.922 4.42202 147.837L4.42202 125.745C4.42202 124.524 3.43149 123.534 2.21101 123.534 0.990533 123.534 0 124.524 0 125.745L0 147.837C0 153.586 7.32287 158.308 21.774 161.828 34.8986 165.03 52.3037 166.799 70.7877 166.799 104.961 166.799 141.239 160.289 141.947 148.208L141.982 148.208 141.982 147.855C141.982 147.855 141.982 147.855 141.982 147.837 141.982 147.837 141.982 147.837 141.982 147.837ZM71.2122 33.5012C30.1051 33.5012 4.86422 25.0286 4.86422 18.9616 4.86422 12.8946 30.1051 4.42202 71.2122 4.42202 112.319 4.42202 137.313 12.8062 137.56 18.8732L137.56 18.8732 137.56 19.1031C137.153 25.1701 112.001 33.5012 71.2299 33.5012Z" fill="#1D428A" transform="matrix(1 0 0 1.0009 3870 1927.03)"/></g></g></g><text fill="#0070C0" font-family="JetBrainsMono Nerd Font,JetBrainsMono Nerd Font_MSFontService,sans-serif" font-weight="500" font-size="37" transform="matrix(1 0 0 1 3401.28 1877)">"networks": "</text><text fill="#0070C0" font-family="JetBrainsMono Nerd Font,JetBrainsMono Nerd Font_MSFontService,sans-serif" font-weight="500" font-size="37" transform="matrix(1 0 0 1 3684.31 1877)">10.220.0.0/16"</text><path d="M3754.47 1740.34 3754.47 1670.16 3722.97 1670.16 3715.85 1670.16 3703.99 1670.16 3703.99 1740.34 3650.49 1740.34 3650.49 1617.66 3715.85 1617.66 3715.85 1666.9 3722.97 1666.9 3722.97 1612 3643.37 1612 3643.37 1740.34 3630 1740.34 3630 1746 3770 1746 3770 1740.34 3754.47 1740.34ZM3711.11 1675.83 3747.35 1675.83 3747.35 1740.34 3711.11 1740.34 3711.11 1675.83ZM3709.38 1638.08 3702.26 1638.08 3702.26 1625.73 3709.38 1625.73 3709.38 1638.08ZM3702.26 1648.03 3709.38 1648.03 3709.38 1660.21 3702.26 1660.21 3702.26 1648.03ZM3666.46 1638.08 3659.34 1638.08 3659.34 1625.73 3666.46 1625.73 3666.46 1638.08ZM3666.46 1660.21 3659.34 1660.21 3659.34 1648.03 3666.46 1648.03 3666.46 1660.21ZM3666.46 1684.58 3659.34 1684.58 3659.34 1670.16 3666.46 1670.16 3666.46 1684.58ZM3666.46 1706.88 3659.34 1706.88 3659.34 1692.64 3666.46 1692.64 3666.46 1706.88ZM3659.34 1714.94 3666.46 1714.94 3666.46 1729.01 3659.34 1729.01 3659.34 1714.94ZM3687.16 1638.08 3680.05 1638.08 3680.05 1625.73 3687.16 1625.73 3687.16 1638.08ZM3687.16 1660.21 3680.05 1660.21 3680.05 1648.03 3687.16 1648.03 3687.16 1660.21ZM3687.16 1684.58 3680.05 1684.58 3680.05 1670.16 3687.16 1670.16 3687.16 1684.58ZM3687.16 1706.88 3680.05 1706.88 3680.05 1692.64 3687.16 1692.64 3687.16 1706.88ZM3680.05 1714.94 3687.16 1714.94 3687.16 1729.01 3680.05 1729.01 3680.05 1714.94ZM3716.93 1680.8 3723.84 1680.8 3723.84 1694.87 3716.93 1694.87 3716.93 1680.8ZM3734.62 1680.8 3741.53 1680.8 3741.53 1694.87 3734.62 1694.87 3734.62 1680.8ZM3716.93 1701.22 3723.84 1701.22 3723.84 1715.29 3716.93 1715.29 3716.93 1701.22ZM3734.62 1701.22 3741.53 1701.22 3741.53 1715.29 3734.62 1715.29 3734.62 1701.22ZM3716.93 1723.35 3723.84 1723.35 3723.84 1735.36 3716.93 1735.36 3716.93 1723.35ZM3734.62 1723.35 3741.53 1723.35 3741.53 1735.36 3734.62 1735.36 3734.62 1723.35Z" fill="#156082" fill-rule="evenodd"/><text font-family="Arial,Arial_MSFontService,sans-serif" font-weight="400" font-size="41" transform="matrix(1 0 0 1 3593.06 1804)">Endpoint C</text><path d="M2184.01 1008.65 2183.72 1015.44 2183.68 1015.8 2176.86 1014.94 2176.88 1014.72 2176.86 1015.01 2177.14 1008.36ZM2182.74 1022.88 2181.41 1029.27 2181.24 1029.86 2174.64 1027.95 2174.77 1027.49 2174.71 1027.74 2176.01 1021.48ZM2179.22 1036.69 2176.89 1043 2176.73 1043.35 2170.46 1040.53 2170.57 1040.29 2170.48 1040.51 2172.77 1034.31ZM2173.91 1049.62 2173.82 1049.81 2170.61 1055.9 2164.53 1052.68 2167.69 1046.7 2167.6 1046.89 2167.64 1046.8ZM2166.97 1061.97 2166.16 1063.31 2163.05 1067.84 2157.38 1063.96 2160.43 1059.51 2160.33 1059.66 2161.1 1058.4ZM2158.88 1073.53 2156.51 1076.64 2154.5 1079.03 2149.24 1074.61 2151.19 1072.28 2151.09 1072.41 2153.42 1069.36ZM2149.93 1084.37 2145.28 1089.43 2140.22 1084.78 2144.87 1079.72ZM2140.35 1094.42 2138.51 1096.27 2135.3 1099.27 2130.61 1094.24 2133.77 1091.29 2133.68 1091.38 2135.48 1089.57ZM2130.14 1103.99 2124.95 1108.5 2120.44 1103.31 2125.63 1098.8ZM2119.55 1112.93 2116.49 1115.43 2114.09 1117.27 2109.91 1111.81 2112.27 1110 2112.19 1110.07 2115.21 1107.6ZM2108.63 1121.45 2108.3 1121.7 2102.98 1125.54 2098.96 1119.97 2104.23 1116.16 2104.16 1116.21 2104.45 1115.99ZM2097.29 1129.55 2091.61 1133.43 2087.74 1127.75 2093.41 1123.88ZM2085.78 1137.23 2081.29 1140.14 2079.93 1140.98 2076.33 1135.12 2077.66 1134.3 2077.59 1134.35 2082.05 1131.46ZM2074.07 1144.58 2071.51 1146.15 2068.1 1148.14 2064.63 1142.21 2068.01 1140.23 2067.94 1140.27 2070.47 1138.72ZM2062.17 1151.61 2061.34 1152.1 2056.05 1154.98 2052.76 1148.94 2058.01 1146.08 2057.91 1146.14 2058.7 1145.68ZM2050.01 1158.26 2043.97 1161.55 2040.69 1155.51 2046.72 1152.22ZM2037.78 1164.82 2031.62 1167.87 2028.56 1161.72 2034.72 1158.66ZM2025.46 1170.93 2019.31 1173.99 2016.25 1167.83 2022.41 1164.77ZM2012.98 1176.96 2006.72 1179.81 2003.87 1173.55 2010.13 1170.7ZM2000.46 1182.65 1994.2 1185.5 1991.36 1179.24 1997.61 1176.39ZM1987.78 1188.23 1981.43 1190.88 1978.78 1184.53 1985.13 1181.88ZM1975.09 1193.53 1968.74 1196.18 1966.1 1189.83 1972.44 1187.18ZM1962.25 1198.71 1955.83 1201.18 1953.36 1194.76 1959.78 1192.29ZM1949.41 1203.64 1942.99 1206.11 1940.53 1199.69 1946.95 1197.22ZM1936.44 1208.48 1929.96 1210.77 1927.67 1204.29 1934.15 1202ZM1923.48 1213.07 1917 1215.36 1914.71 1208.87 1921.19 1206.58ZM1910.41 1217.6 1903.87 1219.73 1901.75 1213.19 1908.28 1211.06ZM1897.33 1221.85 1890.79 1223.98 1888.67 1217.44 1895.21 1215.31ZM1884.17 1226.12 1877.59 1228.09 1875.62 1221.5 1882.21 1219.53ZM1871 1230.05 1864.41 1232.02 1862.44 1225.43 1869.03 1223.46ZM1857.82 1233.98 1854.7 1234.92 1851.13 1235.89 1849.32 1229.26 1852.85 1228.29 1852.77 1228.32 1855.86 1227.4ZM1844.5 1237.7 1837.87 1239.51 1836.06 1232.88 1842.69 1231.07ZM1831.24 1241.33 1824.61 1243.14 1822.79 1236.51 1829.43 1234.69ZM1817.86 1244.83 1811.19 1246.5 1809.53 1239.83 1816.2 1238.16ZM1804.52 1248.16 1797.85 1249.83 1796.19 1243.15 1802.86 1241.49ZM1791.1 1251.48 1784.4 1253 1782.88 1246.29 1789.58 1244.77ZM1777.69 1254.51 1770.99 1256.03 1769.47 1249.33 1776.17 1247.81ZM1764.28 1257.55 1760.19 1258.48 1757.49 1259.03 1756.12 1252.29 1758.78 1251.75 1758.71 1251.76 1762.76 1250.85ZM1750.76 1260.4 1744.02 1261.78 1742.65 1255.04 1749.38 1253.67ZM1737.29 1263.16 1730.55 1264.53 1729.17 1257.8 1735.91 1256.42ZM1723.73 1265.85 1716.97 1267.09 1715.73 1260.32 1722.49 1259.09ZM1710.2 1268.32 1703.44 1269.55 1702.2 1262.79 1708.97 1261.56ZM1696.68 1270.79 1693.55 1271.36 1689.83 1271.96 1688.74 1265.17 1692.42 1264.58 1692.35 1264.59 1695.44 1264.03ZM1683.04 1273.06 1676.26 1274.15 1675.16 1267.36 1681.95 1266.27ZM1669.47 1275.24 1662.68 1276.34 1661.59 1269.55 1668.37 1268.46ZM1655.81 1277.37 1649 1278.33 1648.05 1271.52 1654.86 1270.56ZM1642.2 1279.28 1635.39 1280.24 1634.43 1273.43 1641.24 1272.47ZM1628.58 1281.19 1624.65 1281.74 1621.69 1282.1 1620.88 1275.27 1623.8 1274.92 1623.73 1274.93 1627.62 1274.38ZM1614.87 1282.91 1608.04 1283.72 1607.23 1276.9 1614.05 1276.08ZM1601.21 1284.54 1594.39 1285.35 1593.57 1278.53 1600.4 1277.71ZM1587.48 1286.13 1580.64 1286.8 1579.97 1279.96 1586.81 1279.29ZM1573.8 1287.48 1566.96 1288.15 1566.29 1281.31 1573.13 1280.63ZM1560.12 1288.82 1554.06 1289.42 1553.2 1289.48 1552.67 1282.63 1553.5 1282.56 1553.42 1282.57 1559.44 1281.98ZM1546.35 1290.01 1539.49 1290.54 1538.96 1283.68 1545.82 1283.16ZM1532.64 1291.07 1525.78 1291.6 1525.25 1284.74 1532.11 1284.21ZM1518.93 1292.12 1518.3 1292.17 1511.99 1292.52 1511.61 1285.66 1517.88 1285.31 1517.81 1285.31 1518.4 1285.27ZM1505.13 1292.9 1498.26 1293.29 1497.88 1286.42 1504.74 1286.04ZM1491.4 1293.67 1484.53 1294.05 1484.15 1287.19 1491.02 1286.8ZM1477.59 1294.33 1470.72 1294.57 1470.49 1287.69 1477.36 1287.46ZM1463.85 1294.8 1456.98 1295.03 1456.74 1288.16 1463.61 1287.93ZM1450.1 1295.26 1446.22 1295.39 1443.15 1295.43 1443.08 1288.55 1446.1 1288.52 1446.03 1288.52 1449.87 1288.39ZM1436.28 1295.51 1429.41 1295.58 1429.33 1288.71 1436.2 1288.63ZM1422.53 1295.66 1415.66 1295.74 1415.58 1288.87 1422.45 1288.79ZM1408.78 1295.82 1401.91 1295.9 1401.83 1289.02 1408.7 1288.94ZM1395.03 1295.98 1388.16 1296.05 1388.08 1289.18 1394.95 1289.1ZM1381.28 1296.13 1374.41 1296.21 1374.33 1289.34 1381.21 1289.26ZM1367.61 1296.43 1360.74 1296.66 1360.51 1289.79 1367.38 1289.56ZM1353.87 1296.9 1347 1297.13 1346.77 1290.26 1353.64 1290.02ZM1340.13 1297.36 1338.01 1297.43 1338.08 1297.43 1333.34 1297.69 1332.96 1290.83 1337.74 1290.56 1339.9 1290.49ZM1326.47 1298.07 1319.61 1298.46 1319.23 1291.59 1326.09 1291.21ZM1312.75 1298.84 1305.88 1299.22 1305.5 1292.35 1312.36 1291.97ZM1299.09 1299.66 1292.24 1300.19 1291.71 1293.34 1298.57 1292.81ZM1285.39 1300.72 1278.53 1301.25 1278 1294.39 1284.86 1293.87ZM1271.68 1301.78 1266.58 1302.17 1266.65 1302.16 1264.9 1302.34 1264.22 1295.49 1266.01 1295.32 1271.15 1294.92ZM1258.05 1303.01 1251.21 1303.68 1250.54 1296.84 1257.38 1296.17ZM1244.37 1304.35 1237.53 1305.03 1236.86 1298.18 1243.7 1297.51ZM1230.76 1305.7 1223.93 1306.52 1223.12 1299.69 1229.94 1298.87ZM1217.11 1307.33 1210.28 1308.14 1209.46 1301.32 1216.29 1300.5ZM1203.45 1308.96 1196.63 1309.77 1195.81 1302.95 1202.64 1302.13ZM1189.89 1310.71 1183.08 1311.67 1182.12 1304.86 1188.93 1303.9ZM1176.27 1312.62 1169.46 1313.57 1168.51 1306.77 1175.31 1305.81ZM1162.65 1314.53 1161.71 1314.66 1161.78 1314.65 1155.93 1315.59 1154.84 1308.81 1160.72 1307.86 1161.7 1307.72ZM1149.15 1316.69 1142.36 1317.78 1141.26 1311 1148.05 1309.9ZM1135.57 1318.88 1128.78 1319.97 1127.69 1313.19 1134.48 1312.09ZM1122.09 1321.17 1115.32 1322.41 1114.09 1315.64 1120.85 1314.41ZM1108.56 1323.64 1101.8 1324.88 1100.56 1318.11 1107.33 1316.88ZM1095.03 1326.11 1094.16 1326.27 1094.23 1326.26 1088.36 1327.46 1086.99 1320.72 1092.89 1319.52 1093.8 1319.35ZM1081.63 1328.83 1074.89 1330.21 1073.52 1323.47 1080.25 1322.1ZM1068.16 1331.58 1061.42 1332.96 1060.05 1326.22 1066.78 1324.85ZM1054.79 1334.46 1048.08 1335.98 1046.56 1329.27 1053.27 1327.76ZM1041.38 1337.5 1034.67 1339.02 1033.15 1332.31 1039.86 1330.79ZM1028.04 1340.54 1021.37 1342.21 1019.71 1335.54 1026.38 1333.87ZM1014.7 1343.87 1008.03 1345.53 1006.37 1338.86 1013.04 1337.2ZM1001.36 1347.2 997.759 1348.1 997.833 1348.08 994.783 1348.91 992.971 1342.28 996.057 1341.43 999.698 1340.53ZM988.152 1350.72 981.52 1352.54 979.707 1345.9 986.339 1344.09ZM974.888 1354.35 968.256 1356.16 966.444 1349.53 973.076 1347.72ZM961.738 1358.08 955.15 1360.05 953.184 1353.46 959.772 1351.49ZM948.562 1362.01 941.974 1363.98 940.008 1357.39 946.596 1355.42ZM935.482 1365.97 928.944 1368.1 926.819 1361.56 933.358 1359.43ZM922.405 1370.22 915.867 1372.35 913.742 1365.81 920.281 1363.68ZM909.328 1374.47 908.997 1374.58 909.08 1374.55 902.926 1376.72 900.636 1370.24 906.831 1368.05 907.204 1367.93ZM896.444 1379.01 889.962 1381.31 887.671 1374.82 894.154 1372.53ZM883.48 1383.6 881.438 1384.32 881.525 1384.28 877.129 1385.97 874.664 1379.56 879.104 1377.85 881.189 1377.11ZM870.711 1388.44 864.293 1390.9 861.828 1384.49 868.246 1382.02ZM857.875 1393.37 855.012 1394.47 855.104 1394.43 851.59 1395.9 848.941 1389.56 852.501 1388.07 855.41 1386.95ZM845.247 1398.55 838.903 1401.2 836.253 1394.85 842.597 1392.2ZM832.559 1403.85 829.791 1405 829.889 1404.96 826.362 1406.57 823.515 1400.31 827.091 1398.68 829.909 1397.5ZM820.104 1409.41 813.846 1412.26 810.999 1406 817.257 1403.15ZM807.588 1415.11 805.845 1415.9 805.951 1415.85 801.508 1418.05 798.45 1411.9 802.945 1409.66 804.741 1408.85ZM795.35 1421.11 789.193 1424.17 786.135 1418.01 792.293 1414.95ZM783.154 1427.18 777.115 1430.46 773.829 1424.42 779.868 1421.14ZM771.076 1433.75 765.037 1437.03 761.751 1431 767.79 1427.71ZM759.143 1440.36 753.208 1443.83 749.738 1437.9 755.673 1434.43ZM747.4 1447.37 742.414 1450.43 742.481 1450.39 741.623 1450.94 737.888 1445.17 738.78 1444.6 743.801 1441.51ZM735.851 1454.68 733.153 1456.42 733.224 1456.38 730.2 1458.44 726.323 1452.76 729.383 1450.68 732.116 1448.91ZM724.522 1462.32 724.293 1462.47 724.367 1462.42 719.017 1466.29 714.993 1460.71 720.379 1456.82 720.645 1456.64ZM713.571 1470.32 708.112 1474.5 703.932 1469.04 709.391 1464.86ZM702.856 1478.77 700.201 1480.93 700.286 1480.86 697.682 1483.12 693.171 1477.94 695.816 1475.63 698.514 1473.44ZM692.601 1487.57 687.573 1492.26 682.884 1487.24 687.911 1482.55ZM682.772 1497 680.031 1499.76 680.127 1499.66 678.107 1501.86 673.041 1497.21 675.108 1494.96 677.898 1492.15ZM673.595 1506.84 669.172 1512.11 663.908 1507.69 668.331 1502.42ZM665.087 1517.43 664.018 1518.84 664.121 1518.69 661.231 1522.91 655.56 1519.03 658.499 1514.74 659.621 1513.26ZM657.635 1528.55 655.761 1531.63 655.861 1531.46 654.336 1534.34 648.258 1531.13 649.832 1528.15 651.759 1524.98ZM651.373 1540.3 649.506 1544.45 649.677 1543.98 649.04 1546.21 642.428 1544.33 643.133 1541.85 645.102 1537.48ZM647.156 1552.83 646.654 1554.58 640.042 1552.7 640.544 1550.94ZM657.672 1551.43 639.5 1576.23 630.563 1546.82Z" fill="#196B24"/><path d="M3.43692-0.0633971 3.56371 6.81043-3.31012 6.93723-3.43692 0.0633971ZM3.6905 13.6843 3.8173 20.5581-3.05653 20.6849-3.18333 13.8111ZM3.94409 27.4319 4.07089 34.3058-2.80294 34.4326-2.92974 27.5587ZM4.19768 41.1796 4.32447 48.0534-2.54936 48.1802-2.67615 41.3064ZM4.45127 54.9273 4.57806 61.8011-2.29577 61.9279-2.42256 55.0541ZM4.70486 68.6749 4.83165 75.5488-2.04218 75.6756-2.16897 68.8017ZM4.95845 82.4226 5.08524 89.2964-1.78859 89.4232-1.91539 82.5494ZM5.21203 96.1702 5.33883 103.044-1.535 103.171-1.6618 96.297ZM5.46562 109.918 5.59242 116.792-1.28141 116.919-1.40821 110.045ZM5.71921 123.666 5.846 130.539-1.02783 130.666-1.15462 123.792ZM5.9728 137.413 6.09959 144.287-0.774239 144.414-0.901033 137.54ZM6.22639 151.161 6.35318 158.035-0.52065 158.161-0.647444 151.288ZM6.47997 164.909 6.60677 171.782-0.267062 171.909-0.393856 165.035ZM6.73356 178.656 6.86036 185.53-0.0134739 185.657-0.140268 178.783ZM6.98715 192.404 7.11394 199.278 0.240114 199.404 0.11332 192.531ZM7.24074 206.151 7.36753 213.025 0.493703 213.152 0.366908 206.278ZM7.49433 219.899 7.62112 226.773 0.747291 226.9 0.620497 220.026ZM7.74792 233.647 7.87471 240.521 1.00088 240.647 0.874085 233.774ZM8.0015 247.394 8.1283 254.268 1.25447 254.395 1.12767 247.521ZM8.25509 261.142 8.38189 268.016 1.50806 268.143 1.38126 261.269ZM8.50868 274.89 8.63547 281.764 1.76164 281.89 1.63485 275.017ZM8.76227 288.637 8.88906 295.511 2.01523 295.638 1.88844 288.764ZM9.01586 302.385 9.14265 309.259 2.26882 309.386 2.14203 302.512ZM9.26944 316.133 9.39624 323.007 2.52241 323.133 2.39561 316.26ZM9.52303 329.88 9.64983 336.754 2.776 336.881 2.6492 330.007ZM9.77662 343.628 9.90342 350.502 3.02959 350.629 2.90279 343.755ZM10.0302 357.376 10.157 364.25 3.28318 364.376 3.15638 357.502ZM10.2838 371.123 10.4106 377.997 3.53676 378.124 3.40997 371.25ZM10.5374 384.871 10.6642 391.745 3.79035 391.872 3.66356 384.998ZM10.791 398.619 10.9178 405.492 4.04394 405.619 3.91715 398.745ZM11.0446 412.366 11.1714 419.24 4.29753 419.367 4.17073 412.493ZM11.2982 426.114 11.4249 432.988 4.55112 433.115 4.42432 426.241ZM11.5517 439.862 11.6785 446.735 4.80471 446.862 4.67791 439.988ZM11.8053 453.609 11.9321 460.483 5.05829 460.61 4.9315 453.736ZM12.0589 467.357 12.1857 474.231 5.31188 474.358 5.18509 467.484ZM12.3125 481.105 12.4393 487.978 5.56547 488.105 5.43868 481.231ZM12.5661 494.852 12.6929 501.726 5.81906 501.853 5.69226 494.979ZM12.8197 508.6 12.9465 515.474 6.07265 515.601 5.94585 508.727ZM13.0733 522.348 13.2001 529.222 6.32623 529.348 6.19944 522.474ZM13.3269 536.095 13.4537 542.969 6.57982 543.096 6.45303 536.222ZM23.7129 539.985 10.4724 567.734-3.78246 540.492Z" fill="#196B24" transform="matrix(-1 0 0 1 2180.97 1008.5)"/><path d="M0.142951-3.43453 6.93615-3.15178 7.29079-3.10779 6.4444 3.71491 6.22942 3.68824 6.50966 3.71142-0.142951 3.43453ZM14.3768-2.18674 20.7638-0.87509 21.3552-0.706178 19.4668 5.90441 19.0007 5.77125 19.2533 5.83319 12.9938 4.54772ZM28.1901 1.28986 34.486 3.58814 34.8562 3.75242 32.0682 10.0367 31.804 9.91953 32.0193 10.0065 25.8326 7.74801ZM41.1405 6.54047 41.2953 6.60917 47.4335 9.81079 44.2541 15.9064 38.2122 12.7551 38.408 12.8494 38.3525 12.8248ZM53.5257 13.4108 54.795 14.1711 59.421 17.2977 55.5712 22.9937 51.0231 19.9198 51.1817 20.0208 49.993 19.3088ZM65.1271 21.4334 68.1214 23.6865 70.6539 25.7854 66.267 31.0788 63.7966 29.0314 63.9233 29.1315 60.9935 26.927ZM76.0127 30.3254 81.1102 34.9385 76.4971 40.036 71.3996 35.4229ZM86.1221 39.8446 87.7548 41.4465 90.9954 44.8733 86.0002 49.597 82.8038 46.217 82.894 46.3088 81.3072 44.7519ZM95.7413 50.0102 100.288 55.1666 95.132 59.7138 90.5849 54.5573ZM104.748 60.544 106.916 63.1692 109.108 65.9925 103.677 70.2082 101.517 67.4259 101.582 67.507 99.4473 64.9218ZM113.376 71.5054 117.437 77.0531 111.889 81.1137 107.828 75.5661ZM121.472 82.7301 125.385 88.3833 119.732 92.2957 115.819 86.6425ZM129.208 94.1995 131.628 97.8883 132.973 100.047 127.138 103.683 125.814 101.558 125.857 101.625 123.46 97.9702ZM136.608 105.883 137.64 107.539 140.189 111.84 134.275 115.345 131.745 111.077 131.784 111.142 130.773 109.518ZM143.74 117.85 147.061 123.87 141.041 127.191 137.72 121.171ZM150.382 129.89 153.703 135.91 147.683 139.231 144.362 133.211ZM156.958 142.111 160.05 148.251 153.909 151.343 150.818 145.202ZM163.141 154.392 166.233 160.533 160.092 163.624 157.001 157.483ZM169.184 166.872 172.063 173.115 165.82 175.994 162.941 169.751ZM174.942 179.358 177.547 185.008 177.844 185.71 171.513 188.39 171.237 187.738 171.281 187.837 168.699 182.237ZM180.525 192.041 183.206 198.371 176.875 201.052 174.194 194.721ZM185.886 204.702 188.161 210.073 188.575 211.138 182.169 213.633 181.773 212.615 181.81 212.708 179.556 207.383ZM191.07 217.545 193.564 223.951 187.158 226.446 184.663 220.039ZM196.059 230.358 198.379 236.317 198.573 236.857 192.101 239.176 191.923 238.68 191.956 238.768 189.652 232.852ZM200.891 243.329 203.21 249.802 196.738 252.12 194.419 245.648ZM205.529 256.274 207.847 262.746 201.375 265.065 199.056 258.592ZM210.05 269.352 212.201 275.882 205.671 278.033 203.52 271.503ZM214.352 282.411 216.503 288.941 209.973 291.092 207.822 284.562ZM218.594 295.578 220.585 302.159 214.004 304.149 212.014 297.569ZM222.575 308.739 224.566 315.32 217.985 317.31 215.995 310.73ZM226.567 321.981 228.402 328.607 221.777 330.442 219.941 323.817ZM230.238 335.232 232.073 341.858 225.448 343.693 223.612 337.068ZM233.909 348.483 234.797 351.689 235.686 355.204 229.021 356.89 228.142 353.412 228.162 353.487 227.284 350.319ZM237.371 361.87 239.057 368.535 232.392 370.22 230.706 363.555ZM240.742 375.2 242.427 381.865 235.762 383.551 234.077 376.885ZM244.003 388.635 245.541 395.335 238.841 396.874 237.302 390.173ZM247.08 402.036 248.618 408.737 241.918 410.275 240.379 403.574ZM250.155 415.513 251.549 422.246 244.817 423.64 243.423 416.907ZM252.943 428.978 254.337 435.71 247.605 437.104 246.211 430.372ZM255.731 442.442 256.717 447.206 257.096 449.254 250.336 450.505 249.964 448.493 249.978 448.564 248.999 443.836ZM258.348 456.014 259.599 462.774 252.839 464.026 251.588 457.265ZM260.85 469.534 262.102 476.295 255.342 477.546 254.09 470.786ZM263.309 483.136 264.418 489.92 257.633 491.03 256.524 484.245ZM265.528 496.705 266.637 503.49 259.852 504.6 258.743 497.815ZM267.747 510.275 268.377 514.128 268.805 517.14 261.998 518.108 261.575 515.131 261.586 515.202 260.962 511.385ZM269.772 523.947 270.74 530.754 263.934 531.721 262.966 524.915ZM271.708 537.56 272.675 544.367 265.869 545.334 264.901 538.528ZM273.593 551.252 274.418 558.078 267.593 558.903 266.767 552.078ZM275.243 564.903 276.068 571.728 269.243 572.553 268.418 565.728ZM276.893 578.554 277.431 582.998 277.676 585.456 270.834 586.138 270.593 583.715 270.601 583.787 270.068 579.379ZM278.357 592.298 279.038 599.139 272.197 599.82 271.516 592.979ZM279.72 605.98 280.401 612.821 273.56 613.502 272.879 606.661ZM281.053 619.738 281.588 626.592 274.734 627.128 274.199 620.274ZM282.124 633.446 282.659 640.301 275.805 640.836 275.27 633.982ZM283.195 647.155 283.672 653.264 283.719 654.084 276.855 654.471 276.81 653.688 276.815 653.762 276.341 647.69ZM284.106 660.948 284.493 667.812 277.629 668.199 277.242 661.335ZM284.88 674.676 285.267 681.541 278.403 681.928 278.016 675.063ZM285.654 688.405 285.673 688.746 285.9 695.351 279.029 695.586 278.804 689.02 278.807 689.096 278.79 688.792ZM286.135 702.222 286.37 709.093 279.499 709.328 279.264 702.457ZM286.605 715.964 286.841 722.835 279.97 723.07 279.734 716.199ZM286.956 729.787 287.035 736.661 280.161 736.741 280.081 729.866ZM287.115 743.536 287.194 750.41 280.319 750.49 280.24 743.615ZM287.273 757.285 287.305 760.025 287.353 764.159 280.478 764.239 280.431 760.105 280.399 757.364ZM287.432 771.034 287.512 777.909 280.637 777.988 280.558 771.113ZM287.591 784.783 287.671 791.658 280.796 791.737 280.717 784.863ZM287.814 798.453 288.049 805.324 281.178 805.559 280.943 798.688ZM288.284 812.195 288.519 819.066 281.648 819.301 281.413 812.43ZM288.755 825.937 288.932 831.111 288.928 831.035 289.024 832.73 282.16 833.117 282.062 831.384 281.884 826.172ZM289.411 839.594 289.798 846.458 282.934 846.845 282.547 839.981ZM290.185 853.322 290.572 860.186 283.708 860.573 283.321 853.709ZM290.968 866.975 291.503 873.829 284.649 874.365 284.114 867.511ZM292.039 880.684 292.574 887.538 285.72 888.073 285.185 881.219ZM293.11 894.392 293.646 901.246 286.791 901.781 286.256 894.927ZM294.314 908.015 294.995 914.856 288.154 915.537 287.473 908.696ZM295.676 921.697 296.358 928.538 289.517 929.22 288.835 922.378ZM297.039 935.379 297.142 936.415 297.134 936.343 297.835 942.135 291.009 942.96 290.305 937.132 290.198 936.061ZM298.66 948.96 299.485 955.786 292.66 956.611 291.835 949.786ZM300.31 962.611 301.135 969.436 294.31 970.262 293.485 963.436ZM302.063 976.176 303.03 982.982 296.224 983.95 295.256 977.143ZM303.998 989.789 304.966 996.595 298.159 997.563 297.192 990.756ZM305.933 1003.4 306.16 1005 306.15 1004.93 306.999 1010.12 300.214 1011.23 299.359 1006 299.127 1004.37ZM308.108 1016.91 309.218 1023.69 302.433 1024.8 301.323 1018.02ZM310.327 1030.48 311.436 1037.26 304.651 1038.37 303.542 1031.59ZM312.647 1043.95 313.899 1050.71 307.139 1051.97 305.887 1045.21ZM315.15 1057.47 316.401 1064.24 309.641 1065.49 308.39 1058.73ZM317.653 1071 317.771 1071.64 317.757 1071.57 319.019 1077.66 312.287 1079.05 311.018 1072.92 310.893 1072.25ZM320.413 1084.39 321.807 1091.12 315.075 1092.52 313.681 1085.79ZM323.201 1097.86 324.484 1104.05 324.468 1103.98 324.591 1104.51 317.89 1106.05 317.76 1105.48 316.469 1099.25ZM326.13 1111.21 327.668 1117.91 320.967 1119.45 319.429 1112.75ZM329.206 1124.61 330.745 1131.32 324.044 1132.85 322.506 1126.15ZM332.315 1137.93 334 1144.6 327.335 1146.28 325.649 1139.62ZM335.685 1151.26 337.371 1157.93 330.705 1159.61 329.02 1152.95ZM339.056 1164.59 339.593 1166.72 339.574 1166.64 340.824 1171.15 334.198 1172.99 332.938 1168.44 332.391 1166.28ZM342.659 1177.78 344.495 1184.41 337.869 1186.24 336.034 1179.62ZM346.33 1191.03 347.938 1196.83 347.915 1196.75 348.163 1197.57 341.582 1199.56 341.323 1198.71 339.705 1192.87ZM350.153 1204.15 352.144 1210.73 345.563 1212.72 343.573 1206.14ZM354.134 1217.32 356.125 1223.9 349.544 1225.89 347.554 1219.31ZM358.198 1230.36 360.349 1236.89 353.819 1239.04 351.668 1232.51ZM362.5 1243.42 364.651 1249.95 358.121 1252.1 355.97 1245.57ZM366.83 1256.38 369.149 1262.85 362.676 1265.17 360.358 1258.7ZM371.467 1269.32 373.786 1275.79 367.314 1278.11 364.995 1271.64ZM376.094 1282.17 378.588 1288.58 372.182 1291.07 369.687 1284.67ZM381.083 1294.98 383.577 1301.39 377.171 1303.88 374.676 1297.48ZM386.042 1307.7 388.723 1314.03 382.392 1316.71 379.711 1310.38ZM391.403 1320.36 394.084 1326.69 387.753 1329.37 385.073 1323.04ZM396.741 1332.92 399.62 1339.16 393.377 1342.04 390.498 1335.79ZM402.499 1345.4 405.378 1351.65 399.134 1354.52 396.256 1348.28ZM408.269 1357.75 411.361 1363.89 405.22 1366.98 402.129 1360.84ZM414.452 1370.03 417.544 1376.17 411.403 1379.26 408.312 1373.12ZM420.725 1382.12 424.046 1388.14 418.026 1391.46 414.705 1385.44ZM427.367 1394.16 430.14 1399.19 430.087 1399.1 430.665 1400.07 424.751 1403.58 424.146 1402.55 421.347 1397.48ZM434.17 1405.98 435.989 1409.05 435.95 1408.99 437.699 1411.8 431.863 1415.43 430.095 1412.59 428.256 1409.49ZM441.334 1417.63 441.92 1418.57 441.877 1418.5 445.039 1423.33 439.291 1427.1 436.106 1422.24 435.499 1421.27ZM448.796 1428.98 452.708 1434.63 447.055 1438.55 443.143 1432.89ZM456.669 1440.14 460.064 1444.78 460.006 1444.7 460.696 1445.59 455.266 1449.81 454.545 1448.88 451.121 1444.2ZM464.912 1451.02 466.217 1452.7 466.152 1452.62 469.175 1456.28 463.874 1460.66 460.818 1456.96 459.481 1455.24ZM473.524 1461.46 478.072 1466.62 472.915 1471.17 468.368 1466.01ZM482.692 1471.55 484.93 1473.91 484.84 1473.82 487.422 1476.35 482.607 1481.26 479.979 1478.68 477.697 1476.27ZM492.271 1481.03 497.368 1485.64 492.755 1490.74 487.658 1486.13ZM502.541 1489.94 503.937 1491.1 503.811 1491 507.855 1494.04 503.721 1499.54 499.613 1496.44 498.154 1495.23ZM513.318 1497.92 516.711 1500.21 516.552 1500.11 518.937 1501.54 515.405 1507.44 512.939 1505.96 509.468 1503.61ZM524.716 1504.87 529.522 1507.38 529.326 1507.28 530.656 1507.87 527.868 1514.16 526.438 1513.52 521.537 1510.96ZM536.53 1510.34 543.149 1512.2 541.289 1518.82 534.67 1516.96ZM542.893 1502.01 567.734 1520.13 538.335 1529.13Z" fill="#196B24" transform="matrix(1.83697e-16 1 1 -1.83697e-16 2180.5 1008.5)"/><rect x="1507.5" y="1161.5" width="1335" height="174" stroke="#717074" stroke-width="3.4375" stroke-linejoin="round" stroke-miterlimit="10" fill="#196B24"/><text fill="#FFFFFF" font-family="Metropolis,Metropolis_MSFontService,sans-serif" font-weight="400" font-size="37" transform="matrix(1 0 0 1 1794.62 1261)">L3 Networking (no IP overlapping possible)</text><text fill="#196B24" font-family="Metropolis,Metropolis_MSFontService,sans-serif" font-weight="700" font-size="41" transform="matrix(1 0 0 1 2381.54 924)">zPodFactory</text><text fill="#196B24" font-family="Metropolis,Metropolis_MSFontService,sans-serif" font-weight="400" font-size="41" transform="matrix(1 0 0 1 2653.67 924)">requires network connectivity access to:</text><text fill="#196B24" font-family="Metropolis,Metropolis_MSFontService,sans-serif" font-weight="400" font-size="41" transform="matrix(1 0 0 1 2381.54 974)">-</text><text fill="#196B24" font-family="Metropolis,Metropolis_MSFontService,sans-serif" font-weight="400" font-size="41" transform="matrix(1 0 0 1 2409.04 974)">endpoint</text><text fill="#196B24" font-family="Metropolis,Metropolis_MSFontService,sans-serif" font-weight="700" font-size="41" transform="matrix(1 0 0 1 2598.1 974)">vcsa </text><text fill="#196B24" font-family="Metropolis,Metropolis_MSFontService,sans-serif" font-weight="400" font-size="41" transform="matrix(1 0 0 1 2701.8 974)">(HTTPS/API)</text><text fill="#196B24" font-family="Metropolis,Metropolis_MSFontService,sans-serif" font-weight="400" font-size="41" transform="matrix(1 0 0 1 2381.54 1023)">-</text><text fill="#196B24" font-family="Metropolis,Metropolis_MSFontService,sans-serif" font-weight="400" font-size="41" transform="matrix(1 0 0 1 2409.04 1023)">endpoint </text><text fill="#196B24" font-family="Metropolis,Metropolis_MSFontService,sans-serif" font-weight="700" font-size="41" transform="matrix(1 0 0 1 2598.1 1023)">nsx </text><text fill="#196B24" font-family="Metropolis,Metropolis_MSFontService,sans-serif" font-weight="400" font-size="41" transform="matrix(1 0 0 1 2678.88 1023)">(HTTPS/API)</text><text fill="#196B24" font-family="Metropolis,Metropolis_MSFontService,sans-serif" font-weight="400" font-size="41" transform="matrix(1 0 0 1 2381.54 1073)">-</text><text fill="#196B24" font-family="Metropolis,Metropolis_MSFontService,sans-serif" font-weight="400" font-size="41" transform="matrix(1 0 0 1 2409.04 1073)">endpoint</text><text fill="#196B24" font-family="Metropolis,Metropolis_MSFontService,sans-serif" font-weight="700" font-size="41" transform="matrix(1 0 0 1 2598.1 1073)">networks </text><text fill="#196B24" font-family="Metropolis,Metropolis_MSFontService,sans-serif" font-weight="400" font-size="41" transform="matrix(1 0 0 1 2798.05 1073)">allocation</text><text fill="#196B24" font-family="Metropolis,Metropolis_MSFontService,sans-serif" font-weight="400" font-size="41" transform="matrix(1 0 0 1 2997.99 1073)">(supernet for zPods subnets)</text><path d="M4.58336 22.9166 4.58337 32.0833-4.5833 32.0833-4.58331 22.9166ZM4.58338 41.25 4.58339 50.4166-4.58328 50.4166-4.58329 41.25ZM4.5834 59.5833 4.58341 68.75-4.58326 68.75-4.58327 59.5833ZM4.58341 77.9166 4.58342 87.0833-4.58324 87.0833-4.58325 77.9166ZM4.58343 96.25 4.58344 105.417-4.58322 105.417-4.58323 96.25ZM4.58345 114.583 4.58346 123.75-4.5832 123.75-4.58321 114.583ZM4.58347 132.917 4.58348 142.083-4.58319 142.083-4.5832 132.917ZM4.58349 151.25 4.5835 160.417-4.58317 160.417-4.58318 151.25ZM4.58351 169.583 4.58352 178.75-4.58315 178.75-4.58316 169.583ZM4.58353 187.917 4.58354 197.083-4.58313 197.083-4.58314 187.917ZM4.58355 206.25 4.58356 215.417-4.58311 215.417-4.58312 206.25ZM4.58357 224.583 4.58358 233.75-4.58309 233.75-4.5831 224.583ZM4.58359 242.917 4.5836 252.083-4.58307 252.083-4.58308 242.917ZM4.5836 261.25 4.58361 270.417-4.58305 270.417-4.58306 261.25ZM4.58362 279.583 4.58363 288.75-4.58303 288.75-4.58304 279.583ZM4.58364 297.917 4.58365 307.083-4.58301 307.083-4.58302 297.917ZM4.58366 316.25 4.58367 325.417-4.583 325.417-4.583 316.25ZM4.58368 334.583 4.58369 343.75-4.58298 343.75-4.58299 334.583ZM-13.75 27.5 0 0 13.75 27.5Z" fill="#717074" transform="matrix(1 0 0 -1 2153.5 747.984)"/><text fill="#E97132" font-family="Metropolis,Metropolis_MSFontService,sans-serif" font-weight="700" font-size="41" transform="matrix(1 0 0 1 1765.23 531)">DNAT</text><text fill="#E97132" font-family="Metropolis,Metropolis_MSFontService,sans-serif" font-weight="400" font-size="41" transform="matrix(1 0 0 1 1898.14 531)">port for </text><text fill="#E97132" font-family="Metropolis,Metropolis_MSFontService,sans-serif" font-weight="400" font-size="41" transform="matrix(1 0 0 1 1726.54 581)">WireGuard access </text><text fill="#E97132" font-family="Metropolis,Metropolis_MSFontService,sans-serif" font-weight="400" font-size="41" transform="matrix(1 0 0 1 1812.78 630)">(optional)</text></g></svg>